<svg width="38" height="38" viewBox="0 0 38 38" fill="none" xmlns="http://www.w3.org/2000/svg">
<path d="M20.631 18.6823C20.9226 18.3783 21.2432 18.0981 21.6012 17.8594C22.2359 17.4361 22.9478 17.1416 23.696 16.9919L25.5312 16.625L26.0817 14.4228H26.0929C24.7071 13.7489 23.75 12.3316 23.75 10.6875V8.16703C23.75 7.90163 23.9281 7.67659 24.1817 7.59822C25.5746 7.16894 26.8791 6.37094 27.9062 5.34375C28.9334 6.37094 30.2379 7.16894 31.6308 7.59822C31.8844 7.67659 32.0625 7.90163 32.0625 8.16703V10.6875C32.0625 12.3316 31.1054 13.7489 29.7196 14.4228H29.7308L30.2812 16.625L32.1171 16.9919C32.8652 17.1416 33.5766 17.4361 34.2119 17.8594C34.5705 18.0981 34.8911 18.3783 35.1827 18.6829C36.5554 17.9229 37.4062 16.5021 37.4062 14.9209C37.4062 13.5713 36.7614 12.2817 35.682 11.4718L35.0312 10.9844V7.71875C35.0312 3.78991 31.8351 0.59375 27.9062 0.59375C23.9774 0.59375 20.7812 3.78991 20.7812 7.71875V10.9844L20.1305 11.4724C19.0511 12.2823 18.4062 13.5713 18.4062 14.9209C18.4062 16.4962 19.2512 17.9111 20.631 18.6823Z" fill="white"/>
<path d="M37.4062 22.7198C37.4062 20.5633 36.3351 18.5618 34.5408 17.3654C33.8384 16.8969 33.0618 16.5751 32.2335 16.4095L30.7658 16.1162L30.4148 14.7131C31.7585 13.873 32.6562 12.385 32.6562 10.6875V8.16703C32.6562 7.64453 32.3148 7.18794 31.8054 7.03059C30.5259 6.63575 29.2903 5.88822 28.326 4.92397L27.9062 4.50419L27.4865 4.92397C26.5222 5.88822 25.2866 6.63634 24.0065 7.03059C23.4977 7.18794 23.1562 7.64453 23.1562 8.16703V10.6875C23.1562 12.385 24.054 13.873 25.3971 14.7131L25.0462 16.1162L23.5784 16.4095C22.7501 16.5751 21.9735 16.8969 21.2711 17.3654C19.4774 18.5618 18.4062 20.5633 18.4062 22.7198V24.3438H32.8831L31.6332 26.844C31.5258 27.059 31.4688 27.2994 31.4688 27.5393C31.4688 28.3967 32.1658 29.0938 33.0232 29.0938H33.8438V35.625C33.8438 35.9522 33.5772 36.2188 33.25 36.2188H2.375C2.04784 36.2188 1.78125 35.9522 1.78125 35.625V4.75C1.78125 4.42284 2.04784 4.15625 2.375 4.15625H21.7455C21.9931 3.72994 22.2834 3.33331 22.6112 2.96875H2.375C1.39294 2.96875 0.59375 3.76794 0.59375 4.75V35.625C0.59375 36.6071 1.39294 37.4062 2.375 37.4062H33.25C34.2321 37.4062 35.0312 36.6071 35.0312 35.625V29.0938H35.8518C36.7092 29.0938 37.4062 28.3967 37.4062 27.5393C37.4062 27.2994 37.3493 27.059 37.2424 26.844L35.9919 24.3438H37.4062V22.7198ZM24.3438 10.6875L24.3562 8.16525C25.6375 7.77041 26.8791 7.06563 27.9062 6.15778C28.9334 7.06622 30.1762 7.77041 31.4688 8.16644V10.6875C31.4688 12.6522 29.871 14.25 27.9062 14.25C25.9415 14.25 24.3438 12.6522 24.3438 10.6875ZM26.0158 17.1333L26.4937 15.2226C26.9402 15.3621 27.4146 15.4375 27.9062 15.4375C28.3979 15.4375 28.8723 15.3621 29.3188 15.2232L29.7967 17.1338L31.1113 17.3969L29.7617 19.5938H26.0532L24.7048 17.3957L26.0158 17.1333ZM29.0326 20.7812L27.9062 22.6147L26.7817 20.7812H29.0326ZM19.5938 22.7198C19.5938 20.9618 20.4672 19.3295 21.9307 18.3534C22.4063 18.0363 22.9247 17.8072 23.4727 17.6593L26.8452 23.1562H19.5938V22.7198ZM34.7658 24.5468L36.1802 27.3754C36.2057 27.4259 36.2188 27.4829 36.2188 27.5393C36.2188 27.7418 36.0543 27.9062 35.8518 27.9062H33.0232C32.8207 27.9062 32.6562 27.7418 32.6562 27.5393C32.6562 27.4829 32.6693 27.4259 32.6948 27.3754L34.1092 24.5468C34.1721 24.4215 34.2974 24.3438 34.4375 24.3438C34.5776 24.3438 34.7029 24.4215 34.7658 24.5468ZM36.2188 23.1562H28.9673L32.3422 17.6599C32.889 17.8077 33.4067 18.0369 33.8817 18.3534C35.3453 19.3295 36.2188 20.9618 36.2188 22.7198V23.1562Z" fill="white"/>
<path d="M20.7812 25.5312H16.0312V32.6562H14.8438V26.7188H10.0938V32.6562H8.90625V27.9062H4.15625V33.8438H20.7812V25.5312ZM7.71875 32.6562H5.34375V29.0938H7.71875V32.6562ZM11.2812 27.9062H13.6562V32.6562H11.2812V27.9062ZM19.5938 32.6562H17.2188V26.7188H19.5938V32.6562Z" fill="white"/>
<path d="M24.3438 32.6562H25.5312V33.8438H24.3438V32.6562Z" fill="white"/>
<path d="M26.7188 32.6562H27.9062V33.8438H26.7188V32.6562Z" fill="white"/>
<path d="M29.0938 32.6562H30.2812V33.8438H29.0938V32.6562Z" fill="white"/>
<path d="M9.97497 6.88749L9.02498 6.17499L5.87335 10.3776L4.57601 9.08021L3.73645 9.91977L6.0016 12.1849L9.97497 6.88749Z" fill="white"/>
<path d="M4.57601 18.2323L6.53123 16.277L8.48645 18.2323L9.32601 17.3927L7.37079 15.4375L9.32601 13.4823L8.48645 12.6427L6.53123 14.5979L4.57601 12.6427L3.73645 13.4823L5.69167 15.4375L3.73645 17.3927L4.57601 18.2323Z" fill="white"/>
<path d="M11.2812 8.90625H13.6562V10.0938H11.2812V8.90625Z" fill="white"/>
<path d="M14.8438 8.90625H17.2188V10.0938H14.8438V8.90625Z" fill="white"/>
<path d="M6.0016 25.2474L9.97497 19.95L9.02498 19.2375L5.87335 23.44L4.57601 22.1427L3.73645 22.9823L6.0016 25.2474Z" fill="white"/>
<path d="M11.2812 20.7812H13.6562V21.9688H11.2812V20.7812Z" fill="white"/>
<path d="M14.8438 20.7812H17.2188V21.9688H14.8438V20.7812Z" fill="white"/>
<path d="M11.2812 14.8438H17.2188V16.0312H11.2812V14.8438Z" fill="white"/>
</svg>
