<svg width="97" height="97" viewBox="0 0 97 97" fill="none" xmlns="http://www.w3.org/2000/svg">
<g clip-path="url(#clip0)">
<path d="M74.3248 16.0814C74.367 16.0845 74.4092 16.0876 74.4522 16.0876C74.5251 16.0876 74.598 16.0814 74.6693 16.0714C76.5793 16.1106 78.1079 17.6683 78.1102 19.5783C78.1102 20.4462 78.8138 21.1498 79.6817 21.1498C80.5496 21.1498 81.2533 20.4462 81.2533 19.5783C81.2494 16.4544 79.0747 13.7517 76.0237 13.0795V11.5694C76.0237 10.7015 75.3201 9.9978 74.4522 9.9978C73.5843 9.9978 72.8806 10.7015 72.8806 11.5694V13.1509C69.6546 14.0134 67.5674 17.1342 68.0025 20.4454C68.4376 23.7565 71.26 26.232 74.5995 26.232C76.5386 26.232 78.1102 27.8044 78.1102 29.7435C78.1102 31.6818 76.5386 33.2541 74.5995 33.2541C72.6604 33.2541 71.0888 31.6818 71.0888 29.7435C71.0888 28.8756 70.3852 28.1719 69.5173 28.1719C68.6494 28.1719 67.9457 28.8756 67.9457 29.7435C67.9496 32.7546 69.9723 35.3889 72.8806 36.1709V37.8928C72.8806 38.7607 73.5843 39.4644 74.4522 39.4644C75.3201 39.4644 76.0237 38.7607 76.0237 37.8928V36.243C79.3425 35.5163 81.5809 32.4054 81.2149 29.0275C80.8496 25.6496 77.9974 23.0897 74.5995 23.0905C72.7141 23.0912 71.1648 21.6026 71.0904 19.7187C71.0167 17.8348 72.4448 16.2288 74.3248 16.0822V16.0814Z" fill="#EF7723" fill-opacity="0.17"/>
<path d="M74.6893 2.31433C65.0214 2.31433 56.7707 8.62279 53.6798 17.0699H14.6742C13.8102 17.0699 13.1088 17.8487 13.1026 18.712L12.7312 73.8421H1.61299C0.745105 73.8421 0 74.4706 0 75.34V82.336C0.0199512 88.9222 5.2073 94.3329 11.7866 94.6306V94.6652H60.3083V94.6191C60.7011 94.6337 60.8631 94.6652 61.1117 94.6652H61.1454C67.955 94.6544 73.47 89.131 73.47 82.3214V46.9493C73.8629 46.9708 74.2788 46.9823 74.6855 46.9823C86.9885 46.9823 97.0003 36.9514 97.0003 24.6475C97.0003 12.3445 86.9932 2.31433 74.6893 2.31433ZM12.3844 91.5221H12.3744C7.29068 91.5152 3.16612 87.4044 3.1431 82.3199V76.9852H48.7181V82.2976C48.7204 85.5773 50.0303 88.7212 52.3569 91.0332C52.5219 91.1982 52.7267 91.3256 52.8994 91.5221H12.3844ZM70.3269 82.3199C70.3277 87.3952 66.2185 91.5121 61.1439 91.5221H61.114C56.0187 91.5128 51.8865 87.3937 51.8612 82.2992V75.34C51.8742 74.9379 51.7207 74.5489 51.4361 74.2649C51.1514 73.981 50.7623 73.8283 50.361 73.8421H15.8743L16.235 20.213H52.8073C52.5288 21.6518 52.3845 23.1128 52.3768 24.5777C52.3738 27.6755 53.0199 30.7388 54.2737 33.5711H39.43C38.5613 33.5711 37.8584 34.2748 37.8584 35.1427C37.8584 36.0106 38.5613 36.7142 39.43 36.7142H55.9788C59.2209 41.8126 64.4036 45.367 70.3269 46.5564V82.3199ZM74.6893 43.8399C64.1028 43.8399 55.5199 35.2578 55.5207 24.6706C55.5207 14.0833 64.1028 5.50117 74.6901 5.50117C85.2766 5.50117 93.8587 14.0841 93.8587 24.6706C93.8472 35.2524 85.272 43.8284 74.6893 43.8399Z" fill="#EF7723" fill-opacity="0.17"/>
<path d="M29.3422 44.0302C26.5682 44.0302 24.3122 46.2148 24.3122 48.9006C24.3122 51.5863 26.5682 53.771 29.3422 53.771C32.1162 53.771 34.373 51.5863 34.373 48.9006C34.373 46.2148 32.1162 44.0302 29.3422 44.0302ZM29.3422 50.6279C28.3009 50.6279 27.4553 49.8529 27.4553 48.9006C27.4553 47.9475 28.3017 47.1733 29.3422 47.1733C30.3828 47.1733 31.2299 47.9483 31.2299 48.9006C31.2299 49.8529 30.3828 50.6279 29.3422 50.6279Z" fill="#EF7723" fill-opacity="0.17"/>
<path d="M37.8584 48.8936C37.8584 49.7615 38.5613 50.4651 39.4299 50.4651H60.3819C61.2498 50.4651 61.9535 49.7615 61.9535 48.8936C61.9535 48.0257 61.2498 47.322 60.3819 47.322H39.4299C38.5613 47.322 37.8584 48.0257 37.8584 48.8936Z" fill="#EF7723" fill-opacity="0.17"/>
<path d="M29.3422 30.3689C26.5682 30.3689 24.3122 32.5543 24.3122 35.2401C24.3122 37.9258 26.5682 40.1105 29.3422 40.1105C32.1162 40.1105 34.373 37.9258 34.373 35.2401C34.373 32.5543 32.1162 30.3689 29.3422 30.3689ZM29.3422 36.9674C28.3009 36.9674 27.4553 36.1924 27.4553 35.2401C27.4553 34.2878 28.3017 33.512 29.3422 33.512C30.3828 33.512 31.2299 34.287 31.2299 35.2401C31.2299 36.1924 30.3828 36.9682 29.3422 36.9682V36.9674Z" fill="#EF7723" fill-opacity="0.17"/>
<path d="M29.3422 57.6898C26.5682 57.6898 24.3122 59.8745 24.3122 62.5602C24.3122 65.246 26.5682 67.4307 29.3422 67.4307C32.1162 67.4307 34.373 65.246 34.373 62.5602C34.373 59.8745 32.1162 57.6898 29.3422 57.6898ZM29.3422 64.2876C28.3009 64.2876 27.4553 63.5133 27.4553 62.5602C27.4553 61.6079 28.3017 60.8329 29.3422 60.8329C30.3828 60.8329 31.2299 61.6079 31.2299 62.5602C31.2299 63.5125 30.3828 64.2876 29.3422 64.2876Z" fill="#EF7723" fill-opacity="0.17"/>
<path d="M60.3819 61.0731H39.4299C38.5613 61.0731 37.8584 61.7768 37.8584 62.6447C37.8584 63.5125 38.5613 64.2162 39.4299 64.2162H60.3819C61.2498 64.2162 61.9535 63.5125 61.9535 62.6447C61.9535 61.7768 61.2498 61.0731 60.3819 61.0731Z" fill="#EF7723" fill-opacity="0.17"/>
</g>
<defs>
<clipPath id="clip0">
<rect width="97" height="97" fill="white"/>
</clipPath>
</defs>
</svg>
