<svg width="38" height="38" viewBox="0 0 38 38" fill="none" xmlns="http://www.w3.org/2000/svg">
<g clip-path="url(#clip0)">
<path d="M8.6201 10.5239C8.6201 9.51402 7.79828 8.6922 6.78838 8.6922C5.77849 8.6922 4.95667 9.51402 4.95667 10.5239C4.95667 11.5338 5.77849 12.3556 6.78838 12.3556C7.79828 12.3556 8.6201 11.5345 8.6201 10.5239ZM6.78838 11.1345C6.45136 11.1345 6.17779 10.8604 6.17779 10.5239C6.17779 10.1875 6.45136 9.91332 6.78838 9.91332C7.12541 9.91332 7.39898 10.1875 7.39898 10.5239C7.39898 10.8604 7.12541 11.1345 6.78838 11.1345Z" fill="white"/>
<path d="M14.1154 8.6922C13.1055 8.6922 12.2836 9.51402 12.2836 10.5239C12.2836 11.5338 13.1055 12.3556 14.1154 12.3556C15.1252 12.3556 15.9471 11.5338 15.9471 10.5239C15.9471 9.51402 15.1252 8.6922 14.1154 8.6922ZM14.1154 11.1345C13.7783 11.1345 13.5048 10.8604 13.5048 10.5239C13.5048 10.1875 13.7783 9.91332 14.1154 9.91332C14.4524 9.91332 14.7259 10.1875 14.7259 10.5239C14.7259 10.8604 14.4524 11.1345 14.1154 11.1345Z" fill="white"/>
<path d="M7.39902 14.1874C7.39902 15.8708 8.76858 17.2404 10.4519 17.2404C12.1353 17.2404 13.5048 15.8708 13.5048 14.1874V13.5768H7.39902V14.1874ZM12.1792 14.798C11.927 15.5087 11.2481 16.0192 10.4519 16.0192C9.65579 16.0192 8.97676 15.5087 8.72464 14.798H12.1792Z" fill="white"/>
<path d="M11.0624 28.3437V27.0102H9.84133V28.2314H8.62013V30.0631C8.62013 31.073 9.44195 31.8948 10.4518 31.8948C10.7889 31.8948 11.0624 32.169 11.0624 32.5054V33.116H10.4518C10.1148 33.116 9.84125 32.8419 9.84125 32.5054V31.8948H8.62006V32.5054C8.62006 33.3004 9.13231 33.9721 9.84125 34.2249V35.5583H11.0624V34.3372H12.2836V32.5055C12.2836 31.4956 11.4617 30.6738 10.4518 30.6738C10.1148 30.6738 9.84125 30.3996 9.84125 30.0632V29.4526H10.4518C10.7889 29.4526 11.0624 29.7267 11.0624 30.0632V30.6738H12.2836V30.0632C12.2836 29.2675 11.7714 28.5965 11.0624 28.3437Z" fill="white"/>
<path d="M36.7068 19.6827H31.8222C31.1487 19.6827 30.601 20.2303 30.601 20.9038V29.4519H29.3799V25.7884C29.3799 25.1149 28.8323 24.5672 28.1588 24.5672H23.2742C22.6007 24.5672 22.053 25.1149 22.053 25.7884V36.7787C22.053 37.4522 22.6006 37.9999 23.2742 37.9999H36.7069C37.3803 37.9999 37.9281 37.4522 37.9281 36.7787V20.9038C37.9279 20.2303 37.3803 19.6827 36.7068 19.6827ZM36.7068 20.9038V22.1249H31.8222V20.9038H36.7068ZM31.8222 24.5673V23.3461H36.7068V24.5673H31.8222ZM36.7068 25.7884V27.0096H31.8222V25.7884H36.7068ZM31.8222 28.2307H36.7068V29.4519H31.8222V28.2307ZM26.9375 34.3365V33.1153H31.8222V34.3365H26.9375ZM31.8222 35.5577V36.7788H26.9375V35.5577H31.8222ZM31.8222 30.6731V31.8942H26.9375V30.6731H31.8222ZM25.7163 31.8942H23.274V30.6731H25.7163V31.8942ZM25.7163 33.1154V34.3366H23.274V33.1154H25.7163ZM33.0433 33.1154H36.7067V34.3366H33.0433V33.1154ZM33.0433 31.8942V30.6731H36.7067V31.8942H33.0433ZM23.274 29.4519V28.2307H28.1587V29.4519H23.274ZM28.1587 25.7884V27.0096H23.274V25.7884H28.1587ZM23.274 35.5577H25.7163V36.7788H23.274V35.5577ZM33.0433 36.7788V35.5577H36.7067V36.7788H33.0433Z" fill="white"/>
<path d="M36.0962 5.02877L21.4423 5.02877C21.1517 5.02877 20.8805 5.10261 20.6364 5.22352C20.477 4.44014 20.2273 3.67509 19.8701 2.96073L19.3272 1.87514L16.9582 2.4674L16.3213 0.558125L13.1274 1.83543L11.9062 0.00371094L8.76722 1.25964L7.50766 0L2.27256 2.85572C0.915251 3.59634 0.072052 5.01593 0.072052 6.5619C0.072052 6.79087 0.0909778 7.02414 0.129423 7.25614L0.539111 9.71071C0.24847 10.1125 0.072052 10.6021 0.072052 11.1346C0.072052 12.4815 1.16745 13.5769 2.51437 13.5769V14.1875C2.51437 16.189 3.59329 17.9383 5.19663 18.8994C2.76471 20.6016 1.29384 23.3798 1.29384 26.3991L1.29384 31.8943H3.76666C4.07682 35.3122 6.95451 38 10.4519 38C13.9493 38 16.8276 35.3122 17.1372 31.8942H19.6107L19.6112 26.399C19.6112 23.3797 18.1398 20.601 15.7078 18.8993C17.3105 17.9382 18.3895 16.1889 18.3895 14.1874V13.5768C18.8364 13.5768 19.2498 13.4474 19.6107 13.2374V16.6297C19.6107 17.6396 20.4325 18.4615 21.4424 18.4615H24.4953V19.4299C24.4953 20.2426 25.1566 20.9038 25.9692 20.9038C26.3581 20.9038 26.7379 20.7463 27.0115 20.4721L29.0221 18.4615L36.0963 18.4615C37.1062 18.4615 37.928 17.6396 37.928 16.6297V6.86048C37.9279 5.85059 37.1061 5.02877 36.0962 5.02877ZM1.29317 11.1345C1.29317 10.4611 1.84083 9.91332 2.51429 9.91332L2.51429 12.3556C1.84091 12.3557 1.29317 11.808 1.29317 11.1345ZM2.51437 8.66897V8.6928C2.20361 8.6928 1.90867 8.75692 1.6351 8.86313L1.33347 7.05702C1.30661 6.89158 1.29317 6.72489 1.29317 6.56183C1.29317 5.46339 1.89212 4.45409 2.85689 3.9278L7.29094 1.50991L8.47361 2.69258L11.4404 1.5062L12.6616 3.33791L15.5735 2.1729L16.1578 3.92706L18.6733 3.29813L18.7784 3.50758C19.3224 4.59622 19.6106 5.81682 19.6106 7.0349C19.6106 7.66561 19.5324 8.29513 19.3822 8.90751C19.0781 8.77132 18.7436 8.69198 18.3894 8.69198H18.0841L18.0737 8.67855C16.9454 7.17406 15.4598 5.93401 13.7777 5.09326L13.3369 4.87224L11.0014 7.79141C9.84013 6.74181 8.51451 5.91568 7.05218 5.33136L6.07405 4.94022L3.20186 7.23841C2.76471 7.58827 2.51437 8.10973 2.51437 8.66897ZM10.3273 22.1249H10.577L11.1491 24.6039C10.9202 24.5801 10.6876 24.5672 10.4524 24.5672C10.2174 24.5672 9.98471 24.5801 9.75574 24.6039L10.3273 22.1249ZM10.7358 20.9038H10.168L9.89438 20.4935L10.4518 19.9355L11.0093 20.4929L10.7358 20.9038ZM11.9258 19.6827H12.8942C12.9357 19.6827 12.9767 19.6772 13.0182 19.6766L12.6891 20.4453L11.9258 19.6827ZM8.21533 20.4453L7.88625 19.6766C7.92774 19.6778 7.96804 19.6827 8.01019 19.6827H8.9786L8.21533 20.4453ZM2.51496 26.399C2.51496 23.5452 4.03288 20.9416 6.49227 19.5239L7.80379 22.5841L9.01333 21.374L9.18671 21.6341L8.43814 24.8769C7.60288 25.14 6.83717 25.5613 6.17781 26.1072L6.17781 23.3468H4.95669L4.95669 27.4346C4.30029 28.3688 3.87532 29.4752 3.76666 30.6737H2.51496C2.51496 30.6736 2.51496 26.399 2.51496 26.399ZM10.4519 36.7788C7.42164 36.7788 4.95669 34.3133 4.95669 31.2836C4.95669 28.2539 7.42156 25.7883 10.4519 25.7883C13.4823 25.7883 15.9471 28.2539 15.9471 31.2836C15.9471 34.3133 13.4822 36.7788 10.4519 36.7788ZM18.39 26.399L18.3894 30.673H17.1371C17.0284 29.4745 16.6029 28.3675 15.9465 27.4333L15.9471 23.3461H14.726L14.7254 26.1065C14.0659 25.5613 13.3003 25.1394 12.465 24.8768L11.7165 21.634L11.8898 21.3739L13.0994 22.584L14.4115 19.5232C16.8721 20.941 18.39 23.5452 18.39 26.399ZM17.1683 14.1874C17.1683 16.5443 15.2505 18.4615 12.8942 18.4615H8.0096C5.65338 18.4615 3.73556 16.5443 3.73556 14.1874L3.73556 8.66838C3.73556 8.48216 3.81921 8.30812 3.96512 8.19152L6.28164 6.33843L6.59915 6.46542C8.11766 7.0723 9.47438 7.96686 10.6314 9.12386L11.1137 9.60621L13.6666 6.41473C15.0019 7.16025 16.1809 8.18848 17.0974 9.41086L17.1682 9.50609V14.1874H17.1683ZM18.3894 12.3557V9.9134C19.0628 9.9134 19.6106 10.4611 19.6106 11.1346C19.6106 11.808 19.0628 12.3557 18.3894 12.3557ZM36.7068 16.6297C36.7068 16.9662 36.4332 17.2403 36.0962 17.2403L28.5165 17.2403L26.1474 19.6088C26.0039 19.7541 25.7163 19.6369 25.7163 19.4299V17.2403H21.4423C21.1053 17.2403 20.8317 16.9661 20.8317 16.6297V6.86048C20.8317 6.52405 21.1053 6.24989 21.4423 6.24989L36.0962 6.24989C36.4332 6.24989 36.7068 6.52405 36.7068 6.86048V16.6297Z" fill="white"/>
<path d="M25.8265 15.0739L30.7139 7.74722L31.7299 8.42498L26.8425 15.7517L25.8265 15.0739Z" fill="white"/>
<path d="M31.2116 11.1345C30.2017 11.1345 29.3799 11.9563 29.3799 12.9662C29.3799 13.9761 30.2017 14.798 31.2116 14.798C32.2215 14.798 33.0433 13.9761 33.0433 12.9662C33.0433 11.9563 32.2215 11.1345 31.2116 11.1345ZM31.2116 13.5768C30.8745 13.5768 30.601 13.3027 30.601 12.9662C30.601 12.6298 30.8745 12.3556 31.2116 12.3556C31.5486 12.3556 31.8222 12.6298 31.8222 12.9662C31.8222 13.3027 31.5486 13.5768 31.2116 13.5768Z" fill="white"/>
<path d="M28.1586 10.5239C28.1586 9.51402 27.3368 8.6922 26.3269 8.6922C25.317 8.6922 24.4952 9.51402 24.4952 10.5239C24.4952 11.5338 25.317 12.3556 26.3269 12.3556C27.3368 12.3557 28.1586 11.5345 28.1586 10.5239ZM25.7163 10.5239C25.7163 10.1875 25.9899 9.91332 26.3269 9.91332C26.664 9.91332 26.9375 10.1875 26.9375 10.5239C26.9375 10.8604 26.664 11.1345 26.3269 11.1345C25.9899 11.1345 25.7163 10.8609 25.7163 10.5239Z" fill="white"/>
</g>
<defs>
<clipPath id="clip0">
<rect width="38" height="38" fill="white"/>
</clipPath>
</defs>
</svg>
