<svg width="84" height="84" viewBox="0 0 84 84" fill="none" xmlns="http://www.w3.org/2000/svg">
<path d="M69.8552 20.7139C72.8254 18.8567 74.8125 15.5662 74.8125 11.8125C74.8125 6.02306 70.1019 1.3125 64.3125 1.3125C58.5231 1.3125 53.8125 6.02306 53.8125 11.8125C53.8125 15.5597 55.7917 18.8449 58.7541 20.7034C55.3914 21.9752 52.521 24.3836 50.6822 27.5586C49.7083 26.9115 48.6531 26.3826 47.5427 25.9626C50.5129 24.1067 52.5 20.8162 52.5 17.0625C52.5 11.2731 47.7894 6.5625 42 6.5625C36.2106 6.5625 31.5 11.2731 31.5 17.0625C31.5 20.8162 33.4871 24.1067 36.4573 25.9639C35.3469 26.3826 34.2917 26.9128 33.3178 27.5599C31.479 24.3849 28.6099 21.9765 25.2472 20.7047C28.2083 18.8462 30.1875 15.5597 30.1875 11.8125C30.1875 6.02306 25.4769 1.3125 19.6875 1.3125C13.8981 1.3125 9.1875 6.02306 9.1875 11.8125C9.1875 15.5662 11.1746 18.8567 14.1448 20.7139C8.19 22.9635 3.9375 28.7057 3.9375 35.4375V45.9375C3.9375 48.8329 6.29212 51.1875 9.1875 51.1875H10.5V72.1875C10.5 75.0829 12.8546 77.4375 15.75 77.4375C17.3263 77.4375 18.7241 76.7261 19.6875 75.6236C20.6509 76.7261 22.0487 77.4375 23.625 77.4375C26.5204 77.4375 28.875 75.0829 28.875 72.1875V55.7077C29.6507 56.1593 30.5392 56.4375 31.5 56.4375H32.8125V77.4375C32.8125 80.3329 35.1671 82.6875 38.0625 82.6875C39.6388 82.6875 41.0366 81.9761 42 80.8736C42.9634 81.9761 44.3612 82.6875 45.9375 82.6875C48.8329 82.6875 51.1875 80.3329 51.1875 77.4375V56.4375H52.5C53.4608 56.4375 54.3493 56.1593 55.125 55.7077V72.1875C55.125 75.0829 57.4796 77.4375 60.375 77.4375C61.9513 77.4375 63.3491 76.7261 64.3125 75.6236C65.2759 76.7261 66.6737 77.4375 68.25 77.4375C71.1454 77.4375 73.5 75.0829 73.5 72.1875V51.1875H74.8125C77.7079 51.1875 80.0625 48.8329 80.0625 45.9375V35.4375C80.0625 28.7057 75.81 22.9635 69.8552 20.7139ZM61.4828 22.6564C62.4041 22.4516 63.3452 22.3125 64.3125 22.3125C65.2903 22.3125 66.2406 22.428 67.1593 22.6327L64.3125 26.6175L61.4828 22.6564ZM62.5971 28.7332L60.8816 30.4487L58.3564 23.7759C58.527 23.6893 58.6884 23.5856 58.863 23.5056L62.5971 28.7332ZM66.0266 28.7332L69.7568 23.5108C69.9313 23.5909 70.1032 23.6736 70.2739 23.7602L67.7407 30.4487L66.0266 28.7332ZM56.4375 11.8125C56.4375 7.46944 59.9694 3.9375 64.3125 3.9375C68.6556 3.9375 72.1875 7.46944 72.1875 11.8125C72.1875 16.1556 68.6556 19.6875 64.3125 19.6875C59.9694 19.6875 56.4375 16.1556 56.4375 11.8125ZM43.2836 37.7094L42 39.6336L40.7164 37.7094L41.4619 27.5888C41.6417 27.5822 41.8189 27.5625 42 27.5625C42.1811 27.5625 42.3583 27.5822 42.5381 27.5901L43.2836 37.7094ZM34.125 17.0625C34.125 12.7194 37.6569 9.1875 42 9.1875C46.3431 9.1875 49.875 12.7194 49.875 17.0625C49.875 21.4056 46.3431 24.9375 42 24.9375C37.6569 24.9375 34.125 21.4056 34.125 17.0625ZM19.6875 22.3125C20.5026 22.3125 21.2979 22.4136 22.0802 22.5592C21.6681 23.9518 20.7362 24.9375 19.6875 24.9375C18.6349 24.9375 17.6991 23.9439 17.2896 22.5422C18.0679 22.3978 18.8672 22.3125 19.6875 22.3125ZM11.8125 11.8125C11.8125 7.46944 15.3444 3.9375 19.6875 3.9375C24.0306 3.9375 27.5625 7.46944 27.5625 11.8125C27.5625 16.1556 24.0306 19.6875 19.6875 19.6875C15.3444 19.6875 11.8125 16.1556 11.8125 11.8125ZM26.25 72.1875C26.25 73.6352 25.0727 74.8125 23.625 74.8125C22.1773 74.8125 21 73.6352 21 72.1875V44.625H18.375V72.1875C18.375 73.6352 17.1977 74.8125 15.75 74.8125C14.3023 74.8125 13.125 73.6352 13.125 72.1875V30.1875H10.5V48.5625H9.1875C7.73981 48.5625 6.5625 47.3852 6.5625 45.9375V35.4375C6.5625 29.9368 9.96844 25.2236 14.7788 23.2746C15.5177 25.7985 17.43 27.5625 19.6875 27.5625C21.9384 27.5625 23.8442 25.809 24.5897 23.2969C27.3919 24.4309 29.7478 26.5086 31.2191 29.2372C28.1676 32.1103 26.25 36.1751 26.25 40.6875V44.6959V51.1875V72.1875ZM52.5 53.8125H51.1875V35.4375H48.5625V77.4375C48.5625 78.8852 47.3852 80.0625 45.9375 80.0625C44.4898 80.0625 43.3125 78.8852 43.3125 77.4375V49.875H40.6875V77.4375C40.6875 78.8852 39.5102 80.0625 38.0625 80.0625C36.6148 80.0625 35.4375 78.8852 35.4375 77.4375V35.4375H32.8125V53.8125H31.5C30.0523 53.8125 28.875 52.6352 28.875 51.1875V44.6959V40.6875C28.875 34.5555 33.1091 29.4066 38.8027 27.9733L38.0336 38.4156L42 44.3664L45.9664 38.4156L45.1973 27.9733C50.8909 29.4066 55.125 34.5555 55.125 40.6875V44.625V51.1875C55.125 52.6352 53.9477 53.8125 52.5 53.8125ZM77.4375 45.9375C77.4375 47.3852 76.2602 48.5625 74.8125 48.5625H73.5V31.5H70.875V72.1875C70.875 73.6352 69.6977 74.8125 68.25 74.8125C66.8023 74.8125 65.625 73.6352 65.625 72.1875V44.625H63V72.1875C63 73.6352 61.8227 74.8125 60.375 74.8125C58.9273 74.8125 57.75 73.6352 57.75 72.1875V51.1875V44.625V40.6875C57.75 36.1751 55.8324 32.1103 52.7809 29.2372C53.6248 27.6714 54.7523 26.3182 56.1015 25.2354L59.8671 35.1776L64.3125 30.7322L68.7579 35.1776L72.5287 25.2184C75.5173 27.6268 77.4375 31.3097 77.4375 35.4375V45.9375Z" fill="#EF7723" fill-opacity="0.17"/>
</svg>
