<svg width="130" height="130" viewBox="0 0 130 130" fill="none" xmlns="http://www.w3.org/2000/svg">
<g clip-path="url(#clip0)">
<path d="M32.4606 62.7049C31.043 60.7015 28.2591 60.2248 26.2557 61.6424C24.2523 63.0599 23.7756 65.8438 25.1932 67.8472C26.6107 69.8506 29.3946 70.3274 31.398 68.9098C33.4014 67.4922 33.8791 64.7097 32.4606 62.7049ZM29.684 66.4874C29.0154 66.9604 28.0878 66.8006 27.6156 66.1332C27.1433 65.4657 27.3012 64.5379 27.9698 64.0648C28.6384 63.5917 29.5659 63.7516 30.0382 64.419C30.5104 65.0864 30.3525 66.0143 29.684 66.4874Z" fill="#EF7723" fill-opacity="0.17"/>
<path d="M40.7908 51.3576C38.7873 52.7751 38.3106 55.559 39.7282 57.5624C41.1457 59.5658 43.9296 60.0426 45.933 58.625C47.9365 57.2074 48.4132 54.4235 46.9956 52.4201C45.5781 50.4167 42.7942 49.94 40.7908 51.3576ZM44.219 56.2026C43.5504 56.6756 42.6229 56.5158 42.1506 55.8484C41.6784 55.181 41.8362 54.2531 42.5048 53.78C43.1734 53.3069 44.1009 53.4668 44.5732 54.1342C45.0454 54.8016 44.8876 55.7295 44.219 56.2026Z" fill="#EF7723" fill-opacity="0.17"/>
<path d="M35.1806 71.6865C37.5435 75.0259 42.1828 75.8204 45.5222 73.4575C48.8616 71.0946 49.6561 66.4553 47.2932 63.1159L46.4361 61.9046L34.3235 70.4752L35.1806 71.6865ZM45.5204 66.1878C46.0177 67.9517 45.3874 69.9174 43.808 71.0349C42.2286 72.1524 40.1651 72.0929 38.6673 71.0369L45.5204 66.1878Z" fill="#EF7723" fill-opacity="0.17"/>
<path d="M62.3188 94.627L60.4471 91.9817L58.0246 93.6958L59.7388 96.1183L57.3162 97.8325L59.8874 101.466C61.3049 103.47 64.0888 103.946 66.0922 102.529C66.7608 102.056 67.6884 102.216 68.1606 102.883L69.0177 104.094L67.8064 104.951C67.1378 105.424 66.2103 105.265 65.738 104.597L64.8809 103.386L62.4584 105.1L63.3154 106.311C64.4313 107.888 66.3903 108.502 68.1516 108.008L70.0233 110.653L72.4458 108.939L70.7317 106.517L73.1543 104.803L70.5831 101.169C69.1656 99.1657 66.3817 98.6889 64.3783 100.107C63.7097 100.58 62.7821 100.42 62.3099 99.7523L61.4528 98.541L62.6641 97.6839C63.3327 97.2109 64.2602 97.3707 64.7325 98.0381L65.5896 99.2494L68.0121 97.5353L67.1551 96.324C66.0381 94.7455 64.0801 94.1334 62.3188 94.627Z" fill="#EF7723" fill-opacity="0.17"/>
<path d="M101.034 41.449L91.3442 48.3055C90.0082 49.2508 89.6905 51.106 90.6358 52.442L102.635 69.3994L100.212 71.1135L95.0697 63.8459C94.1244 62.5099 92.2692 62.1922 90.9332 63.1375L81.2432 69.994C79.9072 70.9393 79.5894 72.7946 80.5347 74.1306L95.9617 95.9331C96.907 97.2691 98.7622 97.5868 100.098 96.6413L126.746 77.7861C128.082 76.8408 128.4 74.9855 127.454 73.6495L105.171 42.1572C104.225 40.8214 102.37 40.5037 101.034 41.449ZM102.748 43.8715L104.462 46.2939L94.7723 53.1503L93.0582 50.7279L102.748 43.8715ZM98.2006 57.9955L96.4865 55.5729L106.176 48.7165L107.891 51.139L98.2006 57.9955ZM109.605 53.5615L111.319 55.9839L101.629 62.8404L99.9147 60.4179L109.605 53.5615ZM103.343 65.2629L113.033 58.4065L114.747 60.8291L105.057 67.6855L103.343 65.2629ZM102.223 84.2318L100.509 81.8093L110.199 74.9528L111.913 77.3754L102.223 84.2318ZM113.628 79.798L115.342 82.2204L105.652 89.0769L103.938 86.6544L113.628 79.798ZM106.771 70.1079L108.485 72.5304L98.7952 79.3868L97.0811 76.9644L106.771 70.1079ZM96.3726 81.101L91.5276 84.5292L89.8136 82.1068L94.6586 78.6786L96.3726 81.101ZM98.0868 83.5236L99.801 85.9462L94.956 89.3744L93.2418 86.9518L98.0868 83.5236ZM112.622 73.2389L119.889 68.0966L121.603 70.5192L114.336 75.6615L112.622 73.2389ZM110.908 70.8163L109.194 68.3939L116.461 63.2516L118.175 65.674L110.908 70.8163ZM88.0995 79.6844L86.3853 77.2618L96.0754 70.4053L97.7895 72.8279L88.0995 79.6844ZM92.6471 65.5603L94.3612 67.9828L84.6712 74.8392L82.9571 72.4168L92.6471 65.5603ZM96.67 91.7968L101.515 88.3686L103.229 90.791L98.3841 94.2192L96.67 91.7968ZM117.764 80.5063L116.05 78.0839L123.317 72.9416L125.032 75.364L117.764 80.5063Z" fill="#EF7723" fill-opacity="0.17"/>
<path d="M79.2535 13.2361L50.1835 33.8055C49.6069 34.2134 49.1727 34.7405 48.858 35.3231C47.4423 33.9927 45.873 32.8256 44.1616 31.9099L41.5609 30.5183L37.6926 35.0186L33.7492 32.125L29.206 39.1421L24.2125 37.2225L19.7483 44.1201L15.4815 43.3893L9.10473 56.4028C7.45173 59.7773 7.77165 63.777 9.94171 66.8439C10.2631 67.2981 10.6281 67.7343 11.03 68.1406L15.2882 72.4348C15.2755 73.6397 15.6129 74.8588 16.3603 75.9151C18.251 78.5871 21.9616 79.2225 24.6335 77.3318L25.4906 78.5431C28.3 82.5136 32.8959 84.4694 37.4256 84.1254C34.9906 90.9159 35.9724 98.4918 40.2105 104.481L47.9241 115.383L52.8296 111.912C58.2426 118.257 67.724 119.549 74.6621 114.64C81.6002 109.731 83.5373 100.359 79.3536 93.1436L84.2604 89.6716L76.5481 78.7695C72.3099 72.7799 65.4904 69.3329 58.2773 69.3709C60.1077 65.2146 59.7926 60.2299 56.9832 56.2594L56.1261 55.0481C57.0127 54.4208 57.6511 53.5837 58.0721 52.6605L62.834 59.3903C64.2515 61.3937 67.0354 61.8704 69.0388 60.4528L75.0951 56.1675L76.4545 58.0886C77.5952 59.7008 79.8352 60.0843 81.4473 58.9436C82.2188 58.3977 82.7511 57.5522 82.909 56.6243L84.0753 49.8133L98.1089 39.8835C100.112 38.4659 100.589 35.682 99.1714 33.6786L85.4585 14.2986C84.0408 12.2952 81.2569 11.8185 79.2535 13.2361ZM18.7826 74.2009C17.8373 72.8649 18.1549 71.0095 19.4909 70.0642L22.9191 74.9092C21.5834 75.8546 19.728 75.5369 18.7826 74.2009ZM17.7444 67.5956L17.7778 67.6429C17.1613 68.0791 16.6663 68.6203 16.2726 69.215L13.1391 66.0554C12.8536 65.765 12.5929 65.4531 12.364 65.1297C10.8222 62.9506 10.5936 60.1077 11.7688 57.7094L17.171 46.6888L21.1772 47.3749L25.3974 40.8569L30.3912 42.7765L34.5323 36.3781L38.1537 39.0377L42.2612 34.259L42.7636 34.5271C45.3709 35.9231 47.6559 37.94 49.3657 40.3563C50.251 41.6075 50.9796 42.9661 51.5412 44.3917C50.7468 44.5484 49.9717 44.8606 49.2691 45.3578L48.6636 45.7863L48.6241 45.7742C44.2739 44.3735 39.5862 43.9988 35.0692 44.692L33.8844 44.8724L33.349 53.9416C29.5719 53.4895 25.7826 53.7114 22.0614 54.6049L19.572 55.2019L17.1001 63.7927C16.724 65.1003 16.9594 66.4862 17.7444 67.5956ZM52.1313 83.3223L52.6268 82.9717L57.2413 87.0865C56.7537 87.3606 56.2742 87.6616 55.8078 87.9917C55.3415 88.3216 54.8979 88.6737 54.4772 89.0423L52.1313 83.3223ZM51.2276 80.3265L50.1011 81.1235L48.9825 80.6936L49.3051 78.8041L51.1934 79.1275L51.2276 80.3265ZM51.8743 76.2336L53.7954 74.8743C53.8777 74.816 53.9513 74.7476 54.0327 74.6882L54.4589 76.6751L51.8743 76.2336ZM45.584 82.9548L43.8521 81.8918C43.9361 81.8359 44.0229 81.7891 44.1066 81.7299L46.0277 80.3706L45.584 82.9548ZM42.6329 102.767C38.627 97.1058 37.9837 89.8103 40.8725 83.5457L47.7698 87.7754L48.4706 83.677L49.1797 83.9497L52.2465 91.4333C50.959 93.1279 50.0313 95.0384 49.4895 97.0468L45.6147 91.5708L43.1923 93.2848L48.9303 101.394C48.9395 104.169 49.6494 106.96 51.1163 109.49L48.6332 111.247C48.6331 111.247 42.6329 102.767 42.6329 102.767ZM72.9479 112.217C66.9365 116.471 58.5858 115.04 54.3331 109.03C50.0804 103.019 51.5093 94.6685 57.5208 90.4148C63.5324 86.1612 71.883 87.5924 76.1357 93.6026C80.3884 99.6128 78.9593 107.964 72.9479 112.217ZM74.1253 80.4837L80.1235 88.9633L77.6393 90.7211C75.7413 88.496 73.3433 86.8973 70.7298 85.9655L64.9938 77.8565L62.5714 79.5706L66.445 85.0475C64.3715 84.8915 62.2604 85.1292 60.2348 85.7807L54.198 80.3986L54.1768 79.6391L58.2749 80.342L56.5814 72.4281C63.453 71.7869 70.1194 74.8223 74.1253 80.4837ZM54.5606 57.9736C57.8688 62.649 56.7554 69.1443 52.0812 72.4517L42.3912 79.3082C37.717 82.6156 31.2213 81.5042 27.9131 76.8288L20.1661 65.8803C19.9047 65.5108 19.8264 65.0482 19.9522 64.6121L21.9465 57.6843L22.7546 57.4905C26.6188 56.5629 30.5659 56.4331 34.4852 57.1043L36.1191 57.3841L36.7036 47.4696C40.3991 47.0741 44.1813 47.4589 47.7152 48.5974L47.9893 48.687L54.5604 57.9737L54.5606 57.9736ZM54.4119 52.6258L50.9836 47.7808C52.3196 46.8355 54.1749 47.1531 55.1204 48.4892C56.0656 49.8251 55.7479 51.6805 54.4119 52.6258ZM96.7489 35.3928C97.2211 36.0602 97.0633 36.988 96.3947 37.4611L81.3582 48.1007L79.9831 56.1246C79.9024 56.6142 79.1673 56.7853 78.8768 56.3748L75.8032 52.031L67.3245 58.0304C66.6559 58.5034 65.7284 58.3436 65.2561 57.6762L51.5433 38.2963C51.0711 37.6289 51.2289 36.701 51.8975 36.2279L80.9676 15.6585C81.6362 15.1854 82.5637 15.3453 83.0359 16.0127L96.7489 35.3928Z" fill="#EF7723" fill-opacity="0.17"/>
<path d="M72.9809 47.5789L72.392 26.184L75.359 26.1023L75.9478 47.4972L72.9809 47.5789Z" fill="#EF7723" fill-opacity="0.17"/>
<path d="M78.1341 32.205C76.1306 33.6225 75.6539 36.4064 77.0715 38.4098C78.4891 40.4132 81.2729 40.89 83.2763 39.4724C85.2798 38.0548 85.7565 35.271 84.3389 33.2675C82.9213 31.2641 80.1375 30.7874 78.1341 32.205ZM81.5623 37.05C80.8937 37.5231 79.9662 37.3632 79.4939 36.6958C79.0217 36.0284 79.1795 35.1005 79.8481 34.6274C80.5167 34.1543 81.4442 34.3142 81.9165 34.9816C82.3887 35.649 82.2309 36.5769 81.5623 37.05Z" fill="#EF7723" fill-opacity="0.17"/>
<path d="M71.2206 35.279C69.8031 33.2756 67.0192 32.7989 65.0158 34.2164C63.0124 35.634 62.5356 38.4179 63.9532 40.4213C65.3708 42.4247 68.1547 42.9015 70.1581 41.4839C72.1616 40.0665 72.6391 37.2838 71.2206 35.279ZM66.3756 38.7073C65.9034 38.0398 66.0612 37.112 66.7298 36.6389C67.3984 36.1658 68.326 36.3257 68.7982 36.9931C69.2705 37.6605 69.1126 38.5884 68.444 39.0615C67.7754 39.5345 66.8487 39.3758 66.3756 38.7073Z" fill="#EF7723" fill-opacity="0.17"/>
</g>
<defs>
<clipPath id="clip0">
<rect width="92.3461" height="92.3461" fill="white" transform="translate(0.587952 53.9277) rotate(-35.2825)"/>
</clipPath>
</defs>
</svg>
