<svg width="94" height="94" viewBox="0 0 94 94" fill="none" xmlns="http://www.w3.org/2000/svg">
<g clip-path="url(#clip0)">
<path d="M21.7249 26.3514C21.7249 23.8972 19.7277 21.9 17.2735 21.9C14.8193 21.9 12.8221 23.8972 12.8221 26.3514C12.8221 28.8056 14.8193 30.8028 17.2735 30.8028C19.7277 30.8028 21.7249 28.8072 21.7249 26.3514ZM17.2735 27.8352C16.4545 27.8352 15.7896 27.169 15.7896 26.3514C15.7896 25.5338 16.4545 24.8675 17.2735 24.8675C18.0925 24.8675 18.7573 25.5338 18.7573 26.3514C18.7573 27.169 18.0925 27.8352 17.2735 27.8352Z" fill="white" fill-opacity="0.17"/>
<path d="M35.0792 21.9C32.6249 21.9 30.6278 23.8972 30.6278 26.3514C30.6278 28.8056 32.6249 30.8028 35.0792 30.8028C37.5334 30.8028 39.5305 28.8056 39.5305 26.3514C39.5305 23.8972 37.5334 21.9 35.0792 21.9ZM35.0792 27.8352C34.2601 27.8352 33.5953 27.169 33.5953 26.3514C33.5953 25.5338 34.2601 24.8675 35.0792 24.8675C35.8982 24.8675 36.563 25.5338 36.563 26.3514C36.563 27.169 35.8982 27.8352 35.0792 27.8352Z" fill="white" fill-opacity="0.17"/>
<path d="M18.7573 35.2542C18.7573 39.3451 22.0856 42.6733 26.1764 42.6733C30.2672 42.6733 33.5955 39.3451 33.5955 35.2542V33.7704H18.7573V35.2542ZM30.374 36.7379C29.7611 38.4651 28.1112 39.7056 26.1764 39.7056C24.2416 39.7056 22.5915 38.4651 21.9788 36.7379H30.374Z" fill="white" fill-opacity="0.17"/>
<path d="M27.6601 69.6562V66.4156H24.6926V69.3834H21.7249V73.8347C21.7249 76.2889 23.722 78.2861 26.1762 78.2861C26.9953 78.2861 27.6601 78.9524 27.6601 79.7699V81.2538H26.1762C25.3572 81.2538 24.6924 80.5875 24.6924 79.7699V78.2861H21.7247V79.7699C21.7247 81.7018 22.9695 83.3341 24.6924 83.9484V87.189H27.6599V84.2215H30.6276V79.7701C30.6276 77.3159 28.6304 75.3188 26.1762 75.3188C25.3572 75.3188 24.6924 74.6525 24.6924 73.8349V72.3511H26.1762C26.9953 72.3511 27.6601 73.0173 27.6601 73.8349V75.3188H30.6278V73.8349C30.6278 71.9012 29.3829 70.2706 27.6601 69.6562Z" fill="white" fill-opacity="0.17"/>
<path d="M89.98 48.6085H78.1095C76.4729 48.6085 75.142 49.9394 75.142 51.576V72.3492H72.1745V63.4463C72.1745 61.8097 70.8436 60.4788 69.207 60.4788H57.3365C55.6999 60.4788 54.3688 61.8097 54.3688 63.4463V90.1547C54.3688 91.7913 55.6997 93.1222 57.3365 93.1222H89.9802C91.6168 93.1222 92.9479 91.7913 92.9479 90.1547V51.576C92.9475 49.9394 91.6166 48.6085 89.98 48.6085ZM89.98 51.576V54.5436H78.1095V51.576H89.98ZM78.1095 60.479V57.5113H89.98V60.479H78.1095ZM89.98 63.4465V66.414H78.1095V63.4465H89.98ZM78.1095 69.3817H89.98V72.3494H78.1095V69.3817ZM66.2391 84.2197V81.252H78.1095V84.2197H66.2391ZM78.1095 87.1874V90.1549H66.2391V87.1874H78.1095ZM78.1095 75.3169V78.2844H66.2391V75.3169H78.1095ZM63.2714 78.2844H57.3362V75.3169H63.2714V78.2844ZM63.2714 81.2522V84.2199H57.3362V81.2522H63.2714ZM81.0771 81.2522H89.9798V84.2199H81.0771V81.2522ZM81.0771 78.2844V75.3169H89.9798V78.2844H81.0771ZM57.3362 72.3494V69.3817H69.2066V72.3494H57.3362ZM69.2066 63.4465V66.414H57.3362V63.4465H69.2066ZM57.3362 87.1874H63.2714V90.1549H57.3362V87.1874ZM81.0771 90.1549V87.1874H89.9798V90.1549H81.0771Z" fill="white" fill-opacity="0.17"/>
<path d="M88.4962 12.9972L52.8848 12.9972C52.1785 12.9972 51.5196 13.1767 50.9263 13.4705C50.539 11.5667 49.9321 9.70755 49.064 7.97155L47.7448 5.33337L41.9876 6.77268L40.4399 2.13282L32.6782 5.23688L29.7106 0.785507L22.0823 3.83762L19.0214 0.776489L6.29926 7.71634C3.00077 9.51619 0.95166 12.966 0.95166 16.723C0.95166 17.2794 0.997653 17.8463 1.09108 18.4101L2.08669 24.3751C1.38038 25.3514 0.95166 26.5414 0.95166 27.8354C0.95166 31.1086 3.61365 33.7706 6.88688 33.7706V35.2544C6.88688 40.1183 9.50883 44.3695 13.4052 46.705C7.49525 50.8418 3.9208 57.5932 3.9208 64.9305L3.9208 78.2848H9.93016C10.6839 86.5909 17.6771 93.1226 26.1764 93.1226C34.6757 93.1226 41.6704 86.5909 42.4227 78.2847H48.4336L48.4351 64.9304C48.4351 57.593 44.8592 50.8402 38.949 46.7048C42.844 44.3693 45.4659 40.1181 45.4659 35.2542V33.7704C46.5521 33.7704 47.5567 33.4558 48.4336 32.9454V41.1895C48.4336 43.6437 50.4308 45.6408 52.885 45.6408H60.3041V47.9942C60.3041 49.9692 61.9111 51.5761 63.8859 51.5761C64.831 51.5761 65.7539 51.1933 66.4188 50.5271L71.305 45.6408H88.4963C90.9505 45.6408 92.9477 43.6437 92.9477 41.1895V17.4486C92.9475 14.9944 90.9504 12.9972 88.4962 12.9972ZM3.91918 27.8352C3.91918 26.1986 5.25008 24.8675 6.8867 24.8675V30.8027C5.25026 30.8029 3.91918 29.4718 3.91918 27.8352ZM6.88688 21.8435V21.9014C6.1317 21.9014 5.41494 22.0572 4.75012 22.3153L4.01712 17.9262C3.95183 17.5241 3.91918 17.1191 3.91918 16.7228C3.91918 14.0534 5.37472 11.6006 7.71926 10.3217L18.4947 4.44581L21.3688 7.3199L28.5787 4.43679L31.5464 8.88816L38.6226 6.05699L40.0426 10.3199L46.1558 8.79148L46.411 9.30047C47.7331 11.946 48.4334 14.9123 48.4334 17.8724C48.4334 19.4052 48.2435 20.935 47.8785 22.4232C47.1395 22.0922 46.3264 21.8994 45.4657 21.8994H44.7239L44.6987 21.8668C41.9566 18.2106 38.3464 15.1971 34.2587 13.1539L33.1873 12.6168L27.5118 19.7109C24.6897 17.1602 21.4682 15.1525 17.9145 13.7325L15.5375 12.782L8.55759 18.367C7.49525 19.2172 6.88688 20.4845 6.88688 21.8435ZM25.8736 54.5436H26.4805L27.8707 60.5679C27.3143 60.51 26.7491 60.4788 26.1777 60.4788C25.6065 60.4788 25.041 60.51 24.4846 60.5679L25.8736 54.5436ZM26.8663 51.5761H25.4863L24.8215 50.579L26.1762 49.2229L27.5309 50.5776L26.8663 51.5761ZM29.7582 48.6085H32.1116C32.2125 48.6085 32.312 48.5952 32.4128 48.5938L31.6131 50.4618L29.7582 48.6085ZM20.7411 50.4618L19.9414 48.5938C20.0422 48.5966 20.1402 48.6085 20.2426 48.6085H22.596L20.7411 50.4618ZM6.88833 64.9304C6.88833 57.995 10.5771 51.668 16.5538 48.2227L19.741 55.6595L22.6804 52.7187L23.1017 53.3508L21.2826 61.2313C19.2528 61.8709 17.392 62.8946 15.7896 64.2212V57.5129H12.8221V67.447C11.227 69.7172 10.1942 72.4059 9.93016 75.3186H6.88833C6.88833 75.3184 6.88833 64.9304 6.88833 64.9304ZM26.1764 90.1549C18.8123 90.1549 12.8221 84.1632 12.8221 76.8006C12.8221 69.438 18.8122 63.4463 26.1764 63.4463C33.5406 63.4463 39.5307 69.438 39.5307 76.8006C39.5307 84.1632 33.5405 90.1549 26.1764 90.1549ZM45.4672 64.9304L45.4657 75.317H42.4225C42.1584 72.4043 41.1242 69.7141 39.5291 67.4439L39.5305 57.5113H36.563L36.5616 64.2196C34.959 62.8946 33.0984 61.8692 31.0686 61.2311L29.2494 53.3507L29.6708 52.7185L32.6102 55.6593L35.7988 48.2209C41.7786 51.6666 45.4672 57.995 45.4672 64.9304ZM42.4982 35.2542C42.4982 40.9817 37.8376 45.6408 32.1116 45.6408H20.2412C14.5152 45.6408 9.85459 40.9817 9.85459 35.2542V21.8421C9.85459 21.3895 10.0579 20.9666 10.4124 20.6832L16.042 16.1799L16.8136 16.4885C20.5038 17.9633 23.8008 20.1373 26.6125 22.9489L27.7847 24.1211L33.9885 16.3653C37.2336 18.1771 40.0989 20.6758 42.326 23.6464L42.498 23.8778V35.2542H42.4982ZM45.4657 30.8029V24.8677C47.1024 24.8677 48.4334 26.1986 48.4334 27.8354C48.4334 29.4718 47.1024 30.8029 45.4657 30.8029ZM89.98 41.1895C89.98 42.0071 89.3152 42.6733 88.4962 42.6733H70.0762L64.319 48.4291C63.9703 48.7822 63.2714 48.4973 63.2714 47.9944V42.6731H52.8848C52.0658 42.6731 51.401 42.0069 51.401 41.1893V17.4486C51.401 16.631 52.0658 15.9647 52.8848 15.9647L88.4962 15.9647C89.3152 15.9647 89.98 16.631 89.98 17.4486V41.1895Z" fill="white" fill-opacity="0.17"/>
<path d="M63.5391 37.4086L75.4163 19.6035L77.8854 21.2506L66.0082 39.0556L63.5391 37.4086Z" fill="white" fill-opacity="0.17"/>
<path d="M76.6257 27.8352C74.1715 27.8352 72.1744 29.8324 72.1744 32.2866C72.1744 34.7408 74.1715 36.7379 76.6257 36.7379C79.08 36.7379 81.0771 34.7408 81.0771 32.2866C81.0771 29.8324 79.08 27.8352 76.6257 27.8352ZM76.6257 33.7704C75.8067 33.7704 75.1419 33.1042 75.1419 32.2866C75.1419 31.469 75.8067 30.8027 76.6257 30.8027C77.4448 30.8027 78.1096 31.469 78.1096 32.2866C78.1096 33.1042 77.4448 33.7704 76.6257 33.7704Z" fill="white" fill-opacity="0.17"/>
<path d="M69.2066 26.3513C69.2066 23.8971 67.2095 21.8999 64.7553 21.8999C62.3011 21.8999 60.3039 23.8971 60.3039 26.3513C60.3039 28.8055 62.3011 30.8026 64.7553 30.8026C67.2095 30.8028 69.2066 28.8071 69.2066 26.3513ZM63.2714 26.3513C63.2714 25.5337 63.9362 24.8674 64.7553 24.8674C65.5743 24.8674 66.2391 25.5337 66.2391 26.3513C66.2391 27.1689 65.5743 27.8351 64.7553 27.8351C63.9362 27.8351 63.2714 27.1703 63.2714 26.3513Z" fill="white" fill-opacity="0.17"/>
</g>
<defs>
<clipPath id="clip0">
<rect width="92.3461" height="92.3461" fill="white" transform="translate(0.77655 0.776489)"/>
</clipPath>
</defs>
</svg>
