<svg width="142" height="108" viewBox="0 0 142 108" fill="none" xmlns="http://www.w3.org/2000/svg">
<path d="M63.28 69C63.4933 70.7067 63.6 72.2 63.6 73.48C63.6 74.5467 63.6 75.9333 63.6 77.64C63.6 86.6 60.9333 93.8533 55.6 99.4C50.2667 104.947 43.0133 107.72 33.84 107.72C23.3867 107.72 15.28 104.093 9.52 96.84C3.76 89.5867 0.88 80.2 0.88 68.68C0.88 61.64 1.94667 54.7067 4.08 47.88C6.21333 41.0533 9.2 34.6533 13.04 28.68C17.0933 22.4933 22 17.0533 27.76 12.36C33.52 7.45332 39.92 3.39999 46.96 0.199989L60.4 12.36C54.4267 16.6266 49.7333 21.5333 46.32 27.08C43.12 32.6267 41.52 38.1733 41.52 43.72C41.52 49.6933 43.3333 55.0266 46.96 59.72C50.8 64.2 56.24 67.2933 63.28 69ZM140.72 69C140.933 70.7067 141.04 72.2 141.04 73.48C141.04 74.5467 141.04 75.9333 141.04 77.64C141.04 86.6 138.373 93.8533 133.04 99.4C127.707 104.947 120.453 107.72 111.28 107.72C100.827 107.72 92.72 104.093 86.96 96.84C81.2 89.5867 78.32 80.2 78.32 68.68C78.32 61.64 79.3867 54.7067 81.52 47.88C83.6533 41.0533 86.64 34.6533 90.48 28.68C94.5333 22.4933 99.44 17.0533 105.2 12.36C110.96 7.45332 117.36 3.39999 124.4 0.199989L137.84 12.36C131.867 16.6266 127.173 21.5333 123.76 27.08C120.56 32.6267 118.96 38.1733 118.96 43.72C118.96 49.6933 120.773 55.0266 124.4 59.72C128.24 64.2 133.68 67.2933 140.72 69Z" fill="#D2D2D2"/>
</svg>
