<svg width="38" height="38" viewBox="0 0 38 38" fill="none" xmlns="http://www.w3.org/2000/svg">
<path d="M31.2501 30.7891C30.9427 30.7891 30.6934 31.0384 30.6934 31.3458V36.5792C30.6934 36.7487 30.5555 36.8866 30.3861 36.8866H27.3938V25.9247C27.3938 25.6173 27.1446 25.368 26.8372 25.368C26.5298 25.368 26.2805 25.6173 26.2805 25.9247V36.8866H20.2551L22.0024 34.9644C22.1933 34.7543 22.2833 34.4552 22.2432 34.1638C22.2424 34.1581 22.2415 34.1525 22.2406 34.1469L20.5764 24.3153L21.0247 23.6404C21.2726 23.8164 21.4636 23.9859 21.8217 23.9859C22.186 23.9859 22.5265 23.7821 22.6941 23.4464V23.4464L24.4494 19.9284L28.448 21.477C28.5927 21.539 30.6933 22.485 30.6933 24.9829V28.748C30.6932 29.0554 30.9424 29.3047 31.2499 29.3047C31.5573 29.3047 31.8066 29.0555 31.8066 28.748V24.9829C31.8066 21.6918 28.9886 20.4954 28.8686 20.4461C28.8651 20.4446 28.8616 20.4432 28.858 20.4418L22.203 17.8645V16.3037C23.26 15.4817 23.9929 14.2631 24.1769 12.8728C24.7039 12.8357 25.1929 12.6389 25.5923 12.2954C26.1138 11.8469 26.4131 11.1942 26.4131 10.5048C26.4131 9.93277 26.2067 9.38652 25.8389 8.96087V6.89886C25.8388 3.09485 22.744 0 18.94 0C15.136 0 12.0412 3.09485 12.0412 6.89886V9.01491C11.6695 9.43625 11.4673 9.95489 11.4673 10.5048C11.4673 11.1943 11.7664 11.847 12.2881 12.2956C12.6871 12.6389 13.1759 12.8355 13.7028 12.8726C13.8882 14.289 14.6425 15.553 15.7896 16.3861V17.8645L9.14171 20.4418C9.13822 20.4431 9.13474 20.4445 9.13125 20.4459C9.01124 20.4953 6.1933 21.6916 6.1933 24.9828V36.5791C6.1933 37.3625 6.83061 37.9998 7.61399 37.9998H12.9174C13.2249 37.9998 13.4741 37.7506 13.4741 37.4431C13.4741 37.1357 13.2249 36.8865 12.9174 36.8865H11.7198V25.9247C11.7198 25.6173 11.4705 25.368 11.1631 25.368C10.8557 25.368 10.6065 25.6173 10.6065 25.9247V36.8866H7.61407C7.44463 36.8866 7.30673 36.7487 7.30673 36.5793V24.9828C7.30673 22.4766 9.42144 21.5327 9.55133 21.4772L13.5468 19.9283L15.3022 23.4464C15.4702 23.7828 15.8112 23.9859 16.1748 23.9859C16.5311 23.9859 16.7202 23.819 16.9717 23.6404L17.4201 24.3153L15.756 34.1469C15.755 34.1525 15.7542 34.1581 15.7534 34.1637C15.7132 34.4549 15.8032 34.7543 15.9942 34.9645L17.7415 36.8867H15.5153C15.2079 36.8867 14.9587 37.1359 14.9587 37.4434C14.9587 37.7508 15.2079 38 15.5153 38H30.3862C31.1695 38 31.8069 37.3626 31.8069 36.5793V31.3458C31.8067 31.0384 31.5575 30.7891 31.2501 30.7891ZM23.4067 19.5247L21.7703 22.8044C21.7296 22.7755 20.8623 22.1593 19.8022 21.4065C20.2622 20.8387 19.724 21.503 21.8235 18.9115L23.4067 19.5247ZM20.1164 22.9954L19.6921 23.6342H18.3039L17.8796 22.9954L18.998 22.2011L20.1164 22.9954ZM16.9028 18.0441V17.0024C17.579 17.275 18.3018 17.4014 19.0076 17.4014C19.7374 17.4014 20.4531 17.2458 21.0896 16.9675V18.0487L18.998 20.6304L16.9028 18.0441ZM25.2997 10.5048C25.2997 10.8695 25.1417 11.2145 24.8664 11.4514C24.6843 11.608 24.4644 11.7081 24.2236 11.7473V9.26265C24.8633 9.36656 25.2997 9.89722 25.2997 10.5048ZM13.6567 11.7473C13.0097 11.6423 12.5806 11.1073 12.5806 10.5048C12.5806 9.90969 13.0739 9.42534 13.6567 9.29063V11.7473ZM13.6866 8.15634C13.5093 8.17668 13.3061 8.2247 13.1546 8.27621V6.89886C13.1546 3.70871 15.7499 1.11336 18.9401 1.11336C22.1302 1.11336 24.7255 3.70871 24.7255 6.89886V8.23798C24.5637 8.18878 24.3959 8.15627 24.2236 8.14098C24.2236 7.60386 24.2283 7.70747 22.4712 5.81838C22.148 5.47118 21.6135 5.39845 21.2067 5.66423C19.2674 6.93107 16.9017 7.56749 14.7189 7.41074C14.2401 7.37489 13.804 7.69025 13.6866 8.15634ZM14.7701 12.1855V8.71269V8.52974C17.1729 8.67046 19.6921 7.95662 21.7273 6.65327C22.5332 7.51851 22.9696 7.97236 23.1103 8.14499C23.1103 8.58169 23.1103 11.6856 23.1103 12.1855C23.1103 14.4452 21.2677 16.288 19.0077 16.288C16.4699 16.288 14.7701 14.3193 14.7701 12.1855ZM16.2259 22.8044L14.5894 19.5247L16.1698 18.9126L18.1916 21.4082C17.1634 22.1383 16.3192 22.7381 16.2259 22.8044ZM16.8645 34.2669L18.4758 24.7474H19.5201L21.1313 34.2669L18.998 36.614L16.8645 34.2669Z" fill="white"/>
</svg>
