<svg width="38" height="38" viewBox="0 0 38 38" fill="none" xmlns="http://www.w3.org/2000/svg">
<path d="M33.9436 30.2839C34.3509 29.721 34.5919 29.0303 34.5919 28.284V23.8242C34.5919 23.4143 34.2595 23.082 33.8497 23.082H30.5327C28.9993 23.082 27.7519 24.3295 27.7519 25.8629V28.284C27.7519 29.0298 27.9926 29.7201 28.3994 30.2828C27.892 30.3651 27.4039 30.5277 26.9486 30.7656C25.9174 29.2269 24.228 28.1657 22.2866 27.9867C22.279 27.9846 22.2713 27.983 22.2636 27.9811C22.9582 27.2055 23.3817 26.1821 23.3817 25.0614V19C23.3817 18.5901 23.0493 18.2578 22.6395 18.2578H18.1313C16.1942 18.2578 14.6183 19.8337 14.6183 21.7707V25.0614C14.6183 26.1821 15.0418 27.2054 15.7364 27.9811C15.7287 27.9829 15.721 27.9846 15.7134 27.9866C13.7718 28.1656 12.0823 29.227 11.0512 30.7659C10.5958 30.528 10.1076 30.3653 9.60042 30.283C10.0073 29.7203 10.2481 29.0299 10.2481 28.284V23.8242C10.2481 23.4143 9.91577 23.082 9.50594 23.082H6.18895C4.65559 23.082 3.40812 24.3295 3.40812 25.8629V28.284C3.40812 29.0304 3.64911 29.721 4.05643 30.2839C1.75913 30.6594 0 32.6573 0 35.0591V37.2578C0 37.6677 0.332352 38 0.742188 38H37.2578C37.6676 38 38 37.6677 38 37.2578V35.0591C38 32.6573 36.2409 30.6594 33.9436 30.2839ZM4.8925 25.8629C4.8925 25.148 5.47408 24.5664 6.18895 24.5664H8.76375V25.4703C8.76375 25.9135 8.4032 26.2741 7.96004 26.2741H4.8925V25.8629ZM4.8925 27.7584H7.96004C8.24281 27.7584 8.51356 27.7065 8.76375 27.6123V28.284C8.76375 29.3513 7.89546 30.2196 6.82812 30.2196C5.76079 30.2196 4.8925 29.3513 4.8925 28.284V27.7584ZM7.30661 31.704L6.82812 32.1825L6.34964 31.704H7.30661ZM9.98628 34.2695V36.5156H1.48438V35.0591C1.48438 33.3944 2.70327 32.0097 4.29526 31.7489L6.30332 33.7569C6.44256 33.8961 6.6313 33.9743 6.82812 33.9743C7.02495 33.9743 7.21369 33.8961 7.35293 33.7569L9.36158 31.7482C9.71635 31.8059 10.0575 31.9203 10.3755 32.0876C10.124 32.7679 9.98628 33.5029 9.98628 34.2695ZM19.0001 27.9587C17.4025 27.9587 16.1028 26.659 16.1028 25.0614V24.0805H20.5384C21.0303 24.0805 21.4934 23.9548 21.8974 23.7341V25.0614C21.8974 26.659 20.5976 27.9587 19.0001 27.9587ZM20.2938 29.443L19 30.7368L17.7062 29.443H20.2938ZM16.1026 21.7707H16.1027C16.1027 20.6522 17.0127 19.7422 18.1313 19.7422H21.8973V21.2373C21.8973 21.9866 21.2876 22.5962 20.5383 22.5962H16.1026V21.7707ZM26.5293 36.5156H25.0859H12.9141H11.4707V35.0312H16.3034C16.7132 35.0312 17.0456 34.699 17.0456 34.2891C17.0456 33.8792 16.7132 33.5469 16.3034 33.5469H11.525C11.8431 31.4375 13.5316 29.7724 15.6515 29.4875L18.4752 32.3112C18.6201 32.4562 18.8101 32.5286 19 32.5286C19.1899 32.5286 19.3799 32.4562 19.5248 32.3112L22.3485 29.4875C24.7054 29.8042 26.5293 31.8272 26.5293 34.2695V36.5156ZM29.2363 25.8629C29.2363 25.148 29.8178 24.5664 30.5327 24.5664H33.1075V25.4703C33.1075 25.9135 32.7469 26.2741 32.3038 26.2741H29.2363V25.8629ZM29.2363 27.7584H32.3038C32.5866 27.7584 32.8573 27.7065 33.1075 27.6123V28.284C33.1075 29.3513 32.2392 30.2196 31.1719 30.2196C30.1045 30.2196 29.2363 29.3513 29.2363 28.284V27.7584ZM31.6504 31.704L31.1719 32.1825L30.6934 31.704H31.6504ZM28.0136 36.5156V34.2695C28.0136 33.5028 27.8759 32.7678 27.6244 32.0874C27.9422 31.92 28.2833 31.8057 28.6381 31.748L30.647 33.7569C30.7862 33.8961 30.975 33.9743 31.1718 33.9743C31.3686 33.9743 31.5574 33.8961 31.6966 33.7569L33.7047 31.7489C35.2967 32.0097 36.5155 33.3944 36.5155 35.0591V36.5156H28.0136Z" fill="white"/>
<path d="M22.6578 4.84933C22.3679 4.5595 21.8981 4.5595 21.6081 4.84933L17.9662 8.49131L16.3918 6.91691C16.1019 6.62701 15.6321 6.62701 15.3422 6.91684C15.0524 7.20666 15.0524 7.67661 15.3422 7.96651L17.4414 10.0657C17.5806 10.2049 17.7694 10.2831 17.9662 10.2831C18.163 10.2831 18.3518 10.2049 18.491 10.0657L22.6578 5.89893C22.9476 5.6091 22.9476 5.13915 22.6578 4.84933Z" fill="white"/>
<path d="M22.0347 0.643623C21.6604 0.476705 21.2215 0.644811 21.0545 1.01917C20.8875 1.39353 21.0557 1.83238 21.4301 1.9993C23.5823 2.95917 24.9731 5.10165 24.9731 7.4575C24.9731 10.751 22.2935 13.4305 19 13.4305C15.7065 13.4305 13.0269 10.751 13.0269 7.4575C13.0269 5.11382 14.4076 2.9758 16.5444 2.01073C16.9179 1.84203 17.084 1.40236 16.9153 1.02882C16.7466 0.655201 16.3067 0.489174 15.9334 0.657873C13.2662 1.86259 11.5426 4.53157 11.5426 7.45742C11.5426 11.5695 14.888 14.9149 19 14.9149C23.112 14.9149 26.4574 11.5695 26.4574 7.4575C26.4574 4.51643 24.7214 1.84181 22.0347 0.643623Z" fill="white"/>
<path d="M19.0266 0H19C18.5902 0 18.2578 0.332277 18.2578 0.742188C18.2578 1.1521 18.5902 1.48438 19 1.48438H19.0196C19.0208 1.48438 19.0219 1.48438 19.0232 1.48438C19.4314 1.48438 19.7633 1.1544 19.7653 0.745676C19.7672 0.335766 19.4365 0.00192969 19.0266 0Z" fill="white"/>
<path d="M19.5247 33.7643C19.3867 33.6263 19.1952 33.5469 19 33.5469C18.8048 33.5469 18.6133 33.6263 18.4753 33.7643C18.3372 33.9024 18.2578 34.0939 18.2578 34.2891C18.2578 34.4843 18.3372 34.6757 18.4753 34.8138C18.6134 34.9518 18.8048 35.0312 19 35.0312C19.1952 35.0312 19.3867 34.9518 19.5247 34.8138C19.6627 34.6757 19.7422 34.4843 19.7422 34.2891C19.7422 34.0939 19.6628 33.9024 19.5247 33.7643Z" fill="white"/>
</svg>
