<svg width="102" height="102" viewBox="0 0 102 102" fill="none" xmlns="http://www.w3.org/2000/svg">
<path d="M75.9766 30.3554C76.802 30.3554 77.4708 29.6864 77.4708 28.8612V26.2979C77.4708 25.4727 76.802 24.8037 75.9766 24.8037C75.1513 24.8037 74.4825 25.4727 74.4825 26.2979V28.8612C74.4825 29.6864 75.1513 30.3554 75.9766 30.3554ZM63.1603 24.8037C62.3349 24.8037 61.6662 25.4727 61.6662 26.2979V28.8612C61.6662 29.6864 62.3349 30.3554 63.1603 30.3554C63.9857 30.3554 64.6545 29.6864 64.6545 28.8612V26.2979C64.6545 25.4727 63.9857 24.8037 63.1603 24.8037ZM99.0117 76.0386V59.4688C99.0117 54.3825 95.4063 49.8995 90.4395 48.8096L88.139 48.3036C89.5183 46.7931 90.3218 44.7959 90.3218 42.6488V20.7526C90.3218 15.2107 88.1637 9.99919 84.244 6.07717C80.3228 2.15814 75.1112 0 69.5692 0C58.1263 0 48.8166 9.30949 48.8166 20.7526V42.6488C48.8166 44.7957 49.6198 46.7929 50.999 48.3034L48.6968 48.8096C47.6868 49.0317 46.723 49.3929 45.8283 49.8784V34.417C45.8283 32.3607 44.1554 30.6877 42.0989 30.6877H3.72738C1.67224 30.6877 0 32.3607 0 34.417V46.3686C0 47.1937 0.668777 47.8627 1.49414 47.8627C2.3195 47.8627 2.98828 47.1937 2.98828 46.3686V34.417C2.98828 34.0084 3.31978 33.6759 3.72738 33.6759H42.0989C42.5075 33.6759 42.84 34.0082 42.84 34.417V59.1321C42.84 59.5407 42.5075 59.8732 42.0989 59.8732H28.4205V49.5911C28.4205 47.6689 26.8565 46.1048 24.9342 46.1048H20.8935C18.9712 46.1048 17.4071 47.6689 17.4071 49.5911V59.8732H3.72738C3.31978 59.8732 2.98828 59.5407 2.98828 59.1321V53.3412C2.98828 52.5161 2.3195 51.8471 1.49414 51.8471C0.668777 51.8471 0 52.5161 0 53.3412V59.1321C0 61.1884 1.67224 62.8615 3.72738 62.8615H17.4071V68.034H15.3596C12.6878 68.034 10.5144 70.2077 10.5144 72.8794V75.9988H3.48633C1.56407 75.9988 0 77.5628 0 79.4851V86.5605C0 88.4828 1.56407 90.0469 3.48633 90.0469H5.97656V100.506C5.97656 101.331 6.64534 102 7.4707 102C8.29607 102 8.96484 101.331 8.96484 100.506V90.0469H76.8504C77.6758 90.0469 78.3446 89.3779 78.3446 88.5527C78.3446 87.7276 77.6758 87.0586 76.8504 87.0586H3.48633C3.21161 87.0586 2.98828 86.8351 2.98828 86.5605V79.4851C2.98828 79.2106 3.21161 78.987 3.48633 78.987H98.5137C98.7884 78.987 99.0117 79.2106 99.0117 79.4851V86.5605C99.0117 86.8351 98.7884 87.0586 98.5137 87.0586H83.8231C82.9977 87.0586 82.3289 87.7276 82.3289 88.5527C82.3289 89.3779 82.9977 90.0469 83.8231 90.0469H93.0352V100.506C93.0352 101.331 93.7039 102 94.5293 102C95.3547 102 96.0234 101.331 96.0234 100.506V90.0469H98.5137C100.436 90.0469 102 88.4828 102 86.5605V79.4851C102 77.7324 100.698 76.2815 99.0117 76.0386ZM20.3954 61.3789C20.3954 61.3749 20.396 61.3711 20.396 61.3673C20.396 61.3636 20.3954 61.3596 20.3954 61.3558V49.5911C20.3954 49.3166 20.6187 49.0931 20.8935 49.0931H24.9342C25.2089 49.0931 25.4323 49.3166 25.4323 49.5911V68.0342H20.3954V61.3789ZM32.3252 75.9988H13.5024V72.8794C13.5024 71.8554 14.3356 71.0223 15.3594 71.0223H30.4679C31.4921 71.0223 32.325 71.8554 32.325 72.8794V75.9988H32.3252ZM40.1246 75.9988H35.3135V72.8794C35.3135 70.2077 33.1398 68.034 30.4681 68.034H28.4205V62.8615H40.1246V75.9988ZM51.8048 20.7526C51.8048 10.9574 59.774 2.98828 69.5692 2.98828C74.3134 2.98828 78.7749 4.83584 82.1311 8.19028C85.486 11.5473 87.3335 16.0086 87.3335 20.7526V42.6488C87.3335 44.7133 86.1796 46.562 84.3604 47.4726L78.8695 46.2652C78.1222 46.1016 77.5798 45.4261 77.5798 44.6589V43.3114C81.6462 40.6761 84.3444 36.1014 84.3444 30.9054V21.5865C84.3444 20.9208 84.0675 20.2763 83.585 19.8185C83.1035 19.3615 82.4477 19.1194 81.7839 19.1539C80.7276 19.2091 79.1267 19.0879 77.4997 18.1962C76.4616 17.6275 75.5772 16.842 74.8708 15.8618C74.472 15.3084 73.854 14.9472 73.1756 14.8705C72.4921 14.793 71.804 15.0099 71.287 15.4648C69.8389 16.7382 68.2081 17.7335 66.4395 18.4232C62.9647 19.7782 59.7306 19.641 57.6286 19.287C56.9228 19.1684 56.2036 19.3655 55.6559 19.8282C55.1071 20.2924 54.7923 20.971 54.7923 21.6899V30.9054C54.7923 36.102 57.4911 40.6773 61.5586 43.3121V44.6587C61.5586 45.4259 61.0155 46.1014 60.2657 46.2654L54.7774 47.4722C52.9585 46.5614 51.8048 44.7129 51.8048 42.6485V20.7526ZM64.5407 44.7995C66.1109 45.3695 67.8039 45.6815 69.5686 45.6815C71.3337 45.6815 73.027 45.3693 74.5977 44.7991C74.6594 46.964 76.2799 48.8592 78.4314 49.2285C76.0095 51.3909 72.8892 52.5983 69.5684 52.5983C66.2478 52.5983 63.1274 51.3909 60.7053 49.2285C62.8318 48.8152 64.4813 47.0007 64.5407 44.7995ZM57.7806 30.9054V22.332C60.2447 22.6645 63.7588 22.6761 67.525 21.2072C69.4391 20.4608 71.2155 19.4137 72.8133 18.0903C73.7161 19.2127 74.8072 20.1281 76.0635 20.8168C78.0194 21.8886 79.9363 22.1531 81.3522 22.1531H81.3562V30.9052C81.3562 37.4049 76.0681 42.693 69.5684 42.693C63.0687 42.693 57.7806 37.4053 57.7806 30.9054ZM51.9025 75.9988H43.1129V73.7087H51.9025V75.9988ZM96.0234 75.9988H87.2359V73.7087H96.0234V75.9988ZM96.0234 70.7205H87.2359V69.2883C87.2359 68.4631 86.5671 67.7941 85.7418 67.7941C84.9164 67.7941 84.2476 68.4631 84.2476 69.2883V72.2068C84.2476 72.2094 84.2472 72.2118 84.2472 72.2146C84.2472 72.2174 84.2476 72.2198 84.2476 72.2224V75.999H54.8907V69.2883C54.8907 68.4631 54.222 67.7941 53.3966 67.7941C52.5712 67.7941 51.9025 68.4631 51.9025 69.2883V70.7205H43.1129V62.7178C44.6774 62.2746 45.8283 60.8368 45.8283 59.1321V53.4956C46.827 52.6234 48.0293 52.016 49.3385 51.7281L57.2577 49.9866C60.3647 53.5572 64.7993 55.5864 69.5684 55.5864C74.3377 55.5864 78.7721 53.5572 81.8791 49.9866L89.7984 51.7281C93.4053 52.5198 96.0234 55.7753 96.0234 59.4688V70.7205ZM72.8503 37.68C73.5739 37.2832 73.8386 36.375 73.442 35.6514C73.0449 34.928 72.1367 34.6629 71.4134 35.0599C71.0107 35.2806 70.3659 35.5376 69.5283 35.5333C68.7349 35.5249 68.1091 35.2713 67.7238 35.0601C67.0003 34.6633 66.092 34.9278 65.6952 35.6512C65.2983 36.3746 65.5629 37.2828 66.2865 37.6798C67.2684 38.2187 68.3786 38.5098 69.4971 38.5213C69.521 38.5215 69.5447 38.5217 69.5682 38.5217C71.0099 38.5217 72.1465 38.0659 72.8503 37.68Z" fill="#EF7723" fill-opacity="0.17"/>
</svg>
