<svg width="204" height="45" viewBox="0 0 204 45" fill="none" xmlns="http://www.w3.org/2000/svg">
<path d="M70.2202 30.8819C70.4806 31.5061 70.7953 32.0001 71.1684 32.3715C71.5414 32.7391 71.9728 32.9535 72.4624 33.0109V33.5432C72.3459 33.57 72.1865 33.5968 71.9767 33.6159C71.7668 33.6389 71.5842 33.6466 71.4249 33.6466C71.079 33.6466 70.7098 33.6159 70.3135 33.5509C69.9171 33.4858 69.5285 33.3594 69.1477 33.1679C68.7668 32.9765 68.4054 32.7008 68.0674 32.337C67.7293 31.9771 67.43 31.4908 67.1736 30.8819L66.6762 29.6911H60.9054L59.1256 33.5585H58.0453L64.4184 19.5286H65.3899L70.2202 30.8819ZM61.364 28.7338H66.2642L63.8782 23.1854L61.364 28.7338Z" fill="black"/>
<path d="M84.9987 32.6051V33.5623H74.7513V22.2932C74.7513 21.6537 74.6619 21.1406 74.4832 20.7501C74.3044 20.3595 73.8886 20.1642 73.2435 20.1642H73.0259V19.5286H75.614C75.987 19.5286 76.3018 19.5745 76.5544 19.6664C76.807 19.7583 77.0091 19.9115 77.1567 20.1221C77.3044 20.3327 77.4132 20.6199 77.4676 20.9721C77.5259 21.3283 77.5531 21.7648 77.5531 22.2894V32.6012H84.9987V32.6051Z" fill="black"/>
<path d="M95.3316 19.5286C95.7047 19.5286 96.0117 19.5783 96.2487 19.6779C96.4858 19.7775 96.6723 19.9038 96.8083 20.0608C96.9443 20.2178 97.0376 20.3978 97.0881 20.6046C97.1386 20.8113 97.1619 21.0181 97.1619 21.2325V23.0399H96.513C96.513 22.1324 96.2798 21.4814 95.8135 21.0832C95.3472 20.685 94.6826 20.4897 93.8161 20.4897H90.342V25.8045H95.9495V26.7618H90.3497V32.6089H94.0376C94.8303 32.6089 95.5026 32.4366 96.0544 32.0881C96.6062 31.7397 97.0725 31.1079 97.4456 30.1851L98.0285 30.3995L97.4028 32.0805C97.2435 32.5361 97.0376 32.8961 96.7889 33.1641C96.5363 33.4322 96.1166 33.5662 95.5259 33.5662H87.544V22.2932C87.544 21.6537 87.4547 21.1406 87.2759 20.7501C87.0972 20.3595 86.6813 20.1642 86.0363 20.1642H85.8187V19.5286H95.3316Z" fill="black"/>
<path d="M106.788 24.717L110.949 19.5286H112.352L107.413 25.6705L110.802 30.7939C110.973 31.0619 111.179 31.3338 111.416 31.6018C111.653 31.8699 111.898 32.1149 112.15 32.337C112.403 32.5553 112.659 32.7391 112.927 32.8808C113.192 33.0224 113.448 33.1067 113.693 33.1373V33.5623H111.319C110.914 33.5623 110.538 33.4934 110.188 33.3479C109.834 33.2062 109.512 33.0224 109.216 32.7965C108.921 32.5706 108.657 32.3179 108.42 32.0422C108.183 31.7665 107.977 31.4946 107.806 31.2227L105.626 27.9067L101.075 33.5623H99.6723L104.981 26.9494L101.918 22.2932C101.747 22.0252 101.541 21.7533 101.304 21.4853C101.067 21.2172 100.823 20.9721 100.57 20.7501C100.317 20.5318 100.061 20.3518 99.7927 20.2063C99.5246 20.0646 99.272 19.9804 99.0272 19.9498V19.5286H101.402C101.806 19.5286 102.183 19.6013 102.532 19.743C102.886 19.8847 103.209 20.0685 103.504 20.2944C103.799 20.5203 104.063 20.773 104.301 21.0487C104.538 21.3244 104.744 21.6001 104.915 21.8682L106.788 24.717Z" fill="black"/>
<path d="M126.462 30.8819C126.723 31.5061 127.038 32.0001 127.411 32.3715C127.784 32.7391 128.215 32.9535 128.705 33.0109V33.5432C128.588 33.57 128.429 33.5968 128.219 33.6159C128.009 33.6389 127.826 33.6466 127.667 33.6466C127.321 33.6466 126.952 33.6159 126.556 33.5509C126.159 33.4858 125.771 33.3594 125.39 33.1679C125.009 32.9765 124.648 32.7008 124.31 32.337C123.972 31.9771 123.672 31.4908 123.416 30.8819L122.918 29.6911H117.148L115.368 33.5585H114.288L120.661 19.5286H121.632L126.462 30.8819ZM117.606 28.7338H122.506L120.12 23.1854L117.606 28.7338Z" fill="black"/>
<path d="M130.994 22.2932C130.994 21.6537 130.904 21.1406 130.725 20.7501C130.547 20.3595 130.131 20.1642 129.486 20.1642H129.268V19.5286H135.093C135.769 19.5286 136.481 19.563 137.231 19.6358C137.977 19.7085 138.665 19.8694 139.29 20.1259C139.916 20.3825 140.433 20.7577 140.845 21.2517C141.256 21.7495 141.459 22.4157 141.459 23.2505C141.459 23.5492 141.396 23.8517 141.276 24.1656C141.155 24.4758 140.965 24.7707 140.716 25.0464C140.464 25.322 140.153 25.5709 139.776 25.7892C139.403 26.0075 138.964 26.1836 138.462 26.31C139.166 26.3827 139.753 26.5206 140.219 26.7235C140.685 26.9303 141.062 27.1792 141.342 27.4778C141.622 27.7765 141.82 28.1135 141.937 28.4887C142.049 28.864 142.108 29.2584 142.108 29.6681C142.108 30.4761 141.921 31.1347 141.548 31.6439C141.175 32.1532 140.685 32.5515 140.079 32.8348C139.477 33.1182 138.793 33.3096 138.031 33.4092C137.269 33.5087 136.508 33.5585 135.746 33.5585H131.001V22.2932H130.994ZM135.093 20.3786C134.922 20.3786 134.755 20.3863 134.596 20.4016C134.437 20.4169 134.301 20.4361 134.188 20.4667C134.044 20.4935 133.916 20.5165 133.799 20.5318V25.8849H135.416C136.294 25.8849 137.017 25.6782 137.584 25.2684C138.152 24.8587 138.435 24.1503 138.435 23.1433C138.435 22.6187 138.338 22.1783 138.144 21.826C137.949 21.4738 137.697 21.1866 137.39 20.976C137.079 20.7615 136.725 20.6122 136.321 20.5203C135.921 20.4246 135.509 20.3786 135.093 20.3786ZM135.416 32.7084C136.609 32.7084 137.518 32.4519 138.144 31.9426C138.769 31.4333 139.084 30.7096 139.084 29.7753C139.084 27.8186 137.86 26.8422 135.416 26.8422H133.799V32.4978C133.927 32.54 134.071 32.5744 134.231 32.6051C134.518 32.6778 134.88 32.7123 135.311 32.7123H135.416V32.7084Z" fill="black"/>
<path d="M144.497 26.5438C144.497 25.4946 144.665 24.5182 145.003 23.6107C145.341 22.7031 145.823 21.9182 146.448 21.2519C147.074 20.5856 147.82 20.061 148.69 19.6781C149.561 19.2952 150.536 19.1038 151.613 19.1038C152.693 19.1038 153.665 19.2952 154.535 19.6781C155.405 20.061 156.148 20.5856 156.769 21.2519C157.387 21.9182 157.865 22.7031 158.203 23.6107C158.541 24.5182 158.709 25.4946 158.709 26.5438C158.709 27.593 158.538 28.5694 158.203 29.4769C157.865 30.3844 157.387 31.1694 156.769 31.8356C156.152 32.5019 155.405 33.0265 154.535 33.4094C153.665 33.7923 152.689 33.9838 151.613 33.9838C150.532 33.9838 149.561 33.7923 148.69 33.4094C147.82 33.0265 147.074 32.5019 146.448 31.8356C145.823 31.1694 145.341 30.3844 145.003 29.4769C144.668 28.5732 144.497 27.593 144.497 26.5438ZM155.74 26.5438C155.74 24.476 155.378 22.8755 154.659 21.7497C153.94 20.6239 152.926 20.061 151.617 20.061C150.307 20.061 149.297 20.6239 148.585 21.7497C147.874 22.8755 147.517 24.476 147.517 26.5438C147.517 28.6115 147.874 30.2121 148.585 31.3379C149.297 32.4636 150.307 33.0265 151.617 33.0265C152.926 33.0265 153.94 32.4636 154.659 31.3379C155.378 30.2121 155.74 28.6153 155.74 26.5438Z" fill="black"/>
<path d="M172.263 30.8819C172.523 31.5061 172.838 32.0001 173.211 32.3715C173.584 32.7391 174.016 32.9535 174.505 33.0109V33.5432C174.389 33.57 174.229 33.5968 174.019 33.6159C173.81 33.6389 173.627 33.6466 173.468 33.6466C173.122 33.6466 172.753 33.6159 172.356 33.5509C171.96 33.4858 171.571 33.3594 171.19 33.1679C170.81 32.9765 170.448 32.7008 170.11 32.337C169.772 31.9771 169.473 31.4908 169.216 30.8819L168.719 29.6911H162.948L161.168 33.5585H160.088L166.461 19.5286H167.433L172.263 30.8819ZM163.411 28.7338H168.311L165.925 23.1854L163.411 28.7338Z" fill="black"/>
<path d="M180.482 27.1409H179.619V33.5623H176.794V22.2932C176.794 21.6537 176.705 21.1406 176.526 20.7501C176.347 20.3595 175.931 20.1642 175.286 20.1642H175.073V19.5286H181.026C181.372 19.5286 181.753 19.5439 182.168 19.5707C182.584 19.5975 183.012 19.6626 183.443 19.7621C183.874 19.8617 184.294 19.9995 184.706 20.1757C185.114 20.3518 185.479 20.5854 185.794 20.8764C186.109 21.1674 186.365 21.5197 186.56 21.9409C186.754 22.3583 186.851 22.8599 186.851 23.4381C186.851 23.9895 186.746 24.4681 186.536 24.874C186.326 25.2761 186.054 25.6169 185.716 25.8964C185.378 26.1721 185.001 26.3942 184.582 26.5665C184.162 26.7388 183.754 26.8728 183.354 26.9686L185.619 30.6905C185.891 31.1423 186.155 31.5176 186.408 31.8048C186.661 32.0958 186.902 32.3255 187.131 32.494C187.36 32.6625 187.574 32.7889 187.768 32.8654C187.962 32.942 188.137 32.9956 188.297 33.0263V33.5585C188.18 33.616 187.978 33.6657 187.683 33.7079C187.387 33.75 187.104 33.7729 186.832 33.7729C186.459 33.7729 186.093 33.7232 185.744 33.6236C185.39 33.5241 185.044 33.3556 184.706 33.1143C184.368 32.8731 184.03 32.5553 183.692 32.1571C183.354 31.7588 183.004 31.2725 182.646 30.6905L180.482 27.1409ZM181.022 20.3786C180.851 20.3786 180.676 20.3863 180.505 20.4016C180.334 20.4169 180.183 20.4361 180.05 20.4667C179.891 20.4935 179.747 20.5165 179.619 20.5318V26.2908H180.913C181.259 26.2908 181.605 26.241 181.951 26.1415C182.297 26.0419 182.607 25.8811 182.891 25.6514C183.171 25.4254 183.396 25.1191 183.571 24.7362C183.742 24.3533 183.832 23.8861 183.832 23.3347C183.832 22.7833 183.746 22.3162 183.571 21.9409C183.4 21.5657 183.175 21.2593 182.903 21.0258C182.631 20.7922 182.328 20.6275 181.997 20.528C181.663 20.4284 181.337 20.3786 181.022 20.3786Z" fill="black"/>
<path d="M195.089 19.5286C196.57 19.5286 197.864 19.6894 198.971 20.0072C200.079 20.325 201.008 20.7845 201.754 21.378C202.5 21.9716 203.063 22.6991 203.437 23.5568C203.81 24.4145 203.996 25.3833 203.996 26.4593C203.996 27.5085 203.817 28.4696 203.456 29.3388C203.098 30.2119 202.566 30.9585 201.859 31.5827C201.155 32.2068 200.281 32.6931 199.236 33.0378C198.194 33.3862 196.997 33.5585 195.645 33.5585H190.943V22.2932C190.943 21.6537 190.854 21.1406 190.675 20.7501C190.496 20.3595 190.08 20.1642 189.435 20.1642H189.221V19.5286H195.089ZM195.369 20.3786C195.152 20.3786 194.949 20.3863 194.755 20.4016C194.561 20.4169 194.386 20.4361 194.227 20.4667C194.056 20.4935 193.896 20.5165 193.753 20.5318V32.5629C193.896 32.5897 194.056 32.6204 194.227 32.6472C194.53 32.6893 194.911 32.7123 195.369 32.7123H195.583C196.329 32.7123 197.021 32.5706 197.654 32.2872C198.288 32.0039 198.832 31.598 199.294 31.0657C199.753 30.5335 200.114 29.8864 200.374 29.1205C200.635 28.3547 200.763 27.497 200.763 26.5474C200.763 25.6131 200.639 24.7668 200.386 24.0087C200.133 23.2505 199.78 22.6034 199.317 22.0635C198.859 21.5235 198.307 21.11 197.666 20.819C197.025 20.528 196.317 20.3825 195.54 20.3825H195.369V20.3786Z" fill="black"/>
<path d="M62.1567 42.8134C62.1567 43.0087 62.1839 43.1657 62.2383 43.2882C62.2927 43.4069 62.421 43.4682 62.6192 43.4682H62.7513V43.5984H62.1528C62.0363 43.5984 61.943 43.5869 61.8653 43.5678C61.7876 43.5486 61.7254 43.5103 61.6788 43.4491C61.6321 43.3916 61.601 43.3112 61.5816 43.2117C61.5622 43.1121 61.5544 42.9781 61.5544 42.8134V41.5039H59.5648V43.5984H58.9663V40.0679C58.9663 39.8726 58.9391 39.7157 58.8847 39.5931C58.8303 39.4744 58.7021 39.4132 58.5039 39.4132H58.3718V39.283H58.9702C59.0868 39.283 59.1801 39.2944 59.2578 39.3136C59.3355 39.3327 59.3977 39.371 59.4443 39.4323C59.4909 39.4897 59.522 39.5701 59.5414 39.6735C59.5609 39.7769 59.5686 39.9071 59.5686 40.0679V41.2473H61.5583V39.2868H62.1567V42.8134Z" fill="#58595B"/>
<path d="M68.3977 43.5984H68.0674L67.8342 43.338H67.7992C67.7137 43.4223 67.601 43.495 67.4534 43.5639C67.3057 43.6329 67.1347 43.6635 66.9365 43.6635C66.7966 43.6635 66.6567 43.6482 66.5207 43.6137C66.3847 43.5793 66.2642 43.518 66.1593 43.4299C66.0544 43.3418 65.9689 43.2193 65.9028 43.0661C65.8368 42.913 65.8057 42.7177 65.8057 42.4841V41.3086C65.8057 41.1133 65.7785 40.9525 65.7241 40.8338C65.6697 40.7151 65.5414 40.6538 65.3433 40.6538H65.2772V40.5236H65.8096C65.9262 40.5236 66.0194 40.5351 66.0971 40.5542C66.1749 40.5734 66.237 40.6117 66.2837 40.6729C66.3303 40.7304 66.3614 40.8146 66.3808 40.9142C66.3964 41.0176 66.408 41.1478 66.408 41.3086V42.4841C66.408 42.6488 66.4275 42.7866 66.4702 42.8977C66.5129 43.0087 66.5673 43.1006 66.6373 43.1695C66.7072 43.2385 66.785 43.2882 66.8705 43.3189C66.956 43.3495 67.0453 43.3648 67.1386 43.3648C67.2707 43.3648 67.3951 43.3304 67.5078 43.2614C67.6205 43.1925 67.7176 43.1121 67.8031 43.0202V40.5198H68.4016V43.5984H68.3977Z" fill="#58595B"/>
<path d="M72.5052 40.784C72.5907 40.6997 72.7034 40.627 72.851 40.5581C72.9987 40.4891 73.1697 40.4585 73.3679 40.4585C73.535 40.4585 73.6904 40.4891 73.8303 40.5504C73.9702 40.6117 74.0829 40.7342 74.1645 40.918C74.2811 40.7687 74.4288 40.6576 74.6075 40.5772C74.7863 40.4968 74.9728 40.4585 75.1593 40.4585C75.2837 40.4585 75.4003 40.4738 75.513 40.5083C75.6256 40.5389 75.7228 40.604 75.8083 40.6921C75.8938 40.7801 75.9598 40.9027 76.0104 41.0558C76.0609 41.209 76.0881 41.4005 76.0881 41.6379V43.5984H75.4896V41.6379C75.4896 41.3124 75.443 41.0826 75.3497 40.9525C75.2565 40.8223 75.1243 40.7572 74.9573 40.7572C74.8912 40.7572 74.8251 40.7687 74.7552 40.7955C74.6852 40.8223 74.6231 40.8567 74.5609 40.895C74.4987 40.9333 74.4404 40.9831 74.3899 41.0329C74.3394 41.0826 74.2927 41.1324 74.2655 41.1784C74.285 41.2243 74.2927 41.2971 74.2966 41.3928C74.3005 41.4885 74.3005 41.5689 74.3005 41.634V43.5946H73.7021V41.634C73.7021 41.3086 73.6554 41.0788 73.5622 40.9486C73.4689 40.8184 73.3368 40.7533 73.1697 40.7533C73.0376 40.7533 72.9132 40.7878 72.8005 40.8567C72.6878 40.9256 72.5907 41.0061 72.5052 41.098V43.5984H71.9067V41.3086C71.9067 41.1133 71.8795 40.9525 71.8251 40.8338C71.7707 40.715 71.6425 40.6538 71.4443 40.6538H71.3122V40.5236H71.9106C72.0777 40.5236 72.206 40.5466 72.2914 40.5925C72.3769 40.6385 72.4391 40.7036 72.4741 40.784H72.5052Z" fill="#58595B"/>
<path d="M81.4158 43.5983L81.1826 43.3035H81.1477C81.0816 43.3877 80.9728 43.4681 80.8212 43.5447C80.6697 43.6251 80.4676 43.6634 80.2189 43.6634C80.1256 43.6634 80.0246 43.6481 79.9119 43.6213C79.8031 43.5945 79.6982 43.5447 79.601 43.4758C79.5039 43.4068 79.4223 43.3111 79.3562 43.1962C79.2902 43.0775 79.2552 42.9282 79.2552 42.7521C79.2552 42.5759 79.3018 42.4266 79.3951 42.3079C79.4883 42.1892 79.6127 42.0973 79.7681 42.0284C79.9236 41.9594 80.1023 41.9096 80.3044 41.8828C80.5065 41.856 80.7241 41.8407 80.9495 41.8407H81.1477C81.1477 41.6148 81.1282 41.4272 81.0933 41.2817C81.0583 41.1362 81.0078 41.0213 80.9456 40.9409C80.8834 40.8605 80.8096 40.803 80.7241 40.7724C80.6386 40.7418 80.5453 40.7264 80.4482 40.7264C80.2617 40.7264 80.1062 40.7647 79.9819 40.8451C79.8575 40.9256 79.7681 41.0711 79.7215 41.2817H79.4223C79.4223 41.1668 79.43 41.0634 79.4417 40.9639C79.4534 40.8643 79.5039 40.7762 79.5894 40.692C79.6282 40.6537 79.6865 40.6192 79.7604 40.5886C79.8342 40.558 79.9158 40.535 80.0013 40.5158C80.0907 40.4967 80.1839 40.4852 80.285 40.4776C80.386 40.4699 80.487 40.4661 80.5881 40.4661C80.7396 40.4661 80.8834 40.4814 81.0233 40.5158C81.1632 40.5465 81.2876 40.6154 81.3964 40.7111C81.5052 40.8107 81.5907 40.9485 81.6567 41.1285C81.7228 41.3085 81.7539 41.5459 81.7539 41.8369V43.6021H81.4158V43.5983ZM81.1516 42.0934H80.9534C80.6231 42.0934 80.3627 42.1547 80.1723 42.2734C79.9857 42.3921 79.8886 42.5529 79.8886 42.7482C79.8886 42.8516 79.908 42.9435 79.943 43.0239C79.978 43.1043 80.0246 43.1694 80.0829 43.2192C80.1412 43.269 80.2072 43.3111 80.2811 43.3341C80.3549 43.3571 80.4365 43.3685 80.5181 43.3685C80.6813 43.3685 80.8096 43.3264 80.9067 43.246C81 43.1656 81.0816 43.0737 81.1477 42.9741V42.0934H81.1516Z" fill="#58595B"/>
<path d="M85.2241 41.3086C85.2241 41.1133 85.1969 40.9525 85.1425 40.8338C85.0881 40.715 84.9598 40.6538 84.7616 40.6538H84.6295V40.5236H85.228C85.3951 40.5236 85.5233 40.5466 85.6088 40.5925C85.6943 40.6385 85.7565 40.7036 85.7914 40.784H85.8264C85.9119 40.6997 86.0246 40.627 86.1723 40.5581C86.3199 40.4891 86.4909 40.4585 86.6891 40.4585C86.829 40.4585 86.9689 40.4738 87.1049 40.5083C87.2409 40.5389 87.3614 40.604 87.4663 40.6921C87.5712 40.7801 87.6567 40.9027 87.7228 41.0558C87.7889 41.209 87.82 41.4005 87.82 41.6379V43.5984H87.2215V41.6379C87.2215 41.477 87.2021 41.3392 87.1593 41.2243C87.1166 41.1095 87.0622 41.0176 86.9922 40.9486C86.9223 40.8797 86.8446 40.8299 86.7591 40.7993C86.6736 40.7687 86.5842 40.7533 86.4909 40.7533C86.3588 40.7533 86.2345 40.7878 86.1218 40.8567C86.0091 40.9256 85.9119 41.0061 85.8264 41.098V43.5984H85.228V41.3086H85.2241Z" fill="#58595B"/>
<path d="M96.5984 41.6034H96.1321V43.5984H95.5337V40.0679C95.5337 39.8726 95.5065 39.7157 95.4521 39.5931C95.3977 39.4744 95.2694 39.4132 95.0712 39.4132H94.9391V39.283H96.6645C96.8044 39.283 96.9715 39.2944 97.1619 39.3174C97.3523 39.3404 97.535 39.394 97.706 39.4782C97.8769 39.5625 98.0246 39.6812 98.1451 39.8344C98.2655 39.9875 98.3238 40.1981 98.3238 40.4585C98.3238 40.6461 98.2889 40.807 98.2228 40.9371C98.1567 41.0673 98.0712 41.1746 97.9663 41.2626C97.8614 41.3469 97.7487 41.4158 97.6205 41.4617C97.4922 41.5077 97.3718 41.546 97.2591 41.5728L97.9547 42.7177C98.0402 42.8594 98.1179 42.9742 98.1917 43.0661C98.2655 43.158 98.3355 43.2346 98.4093 43.2921C98.4793 43.3495 98.5492 43.3916 98.6231 43.4184C98.6969 43.4452 98.7707 43.4605 98.8562 43.472V43.6022C98.8212 43.6175 98.7668 43.6367 98.693 43.6482C98.6192 43.6635 98.5415 43.6673 98.456 43.6673C98.3394 43.6673 98.2345 43.652 98.1334 43.6214C98.0324 43.5907 97.9391 43.5371 97.8459 43.4644C97.7526 43.3916 97.6593 43.2921 97.5622 43.1695C97.465 43.047 97.3679 42.8977 97.2591 42.7177L96.5984 41.6034ZM96.6295 41.3737C96.7228 41.3737 96.8277 41.3584 96.9443 41.3201C97.0609 41.2856 97.1736 41.232 97.2785 41.1592C97.3834 41.0865 97.4728 40.9946 97.5466 40.8797C97.6205 40.7648 97.6554 40.6232 97.6554 40.4585C97.6554 40.29 97.6205 40.1407 97.5466 40.022C97.4728 39.9033 97.3834 39.7999 97.2785 39.7271C97.1736 39.6544 97.0609 39.6008 96.9443 39.5625C96.8277 39.5242 96.7228 39.5089 96.6295 39.5089C96.544 39.5089 96.4586 39.5165 96.3692 39.528C96.2798 39.5395 96.1982 39.5548 96.1321 39.574V41.3086C96.1982 41.3239 96.2759 41.3392 96.3692 41.3545C96.4624 41.3698 96.544 41.3737 96.6295 41.3737Z" fill="#58595B"/>
<path d="M104.13 42.1586H102.117C102.117 42.3386 102.136 42.5033 102.175 42.6564C102.214 42.8096 102.272 42.9398 102.35 43.0508C102.427 43.1619 102.521 43.2461 102.633 43.3074C102.742 43.3686 102.87 43.3993 103.01 43.3993C103.228 43.3993 103.407 43.3533 103.551 43.2614C103.694 43.1695 103.823 43.0393 103.939 42.8747L104.071 42.9742C103.92 43.2231 103.749 43.3993 103.551 43.5027C103.352 43.6061 103.131 43.6597 102.878 43.6597C102.645 43.6597 102.439 43.6175 102.268 43.5333C102.097 43.4491 101.949 43.3342 101.833 43.1887C101.716 43.0432 101.627 42.8747 101.573 42.6832C101.518 42.4918 101.487 42.2812 101.487 42.0591C101.487 41.837 101.518 41.6302 101.576 41.4349C101.635 41.2396 101.724 41.0712 101.837 40.9295C101.953 40.784 102.089 40.6729 102.256 40.5849C102.424 40.4968 102.606 40.4585 102.816 40.4585C103.267 40.4585 103.601 40.581 103.819 40.8299C104.036 41.0788 104.145 41.4349 104.145 41.8944L104.13 42.1586ZM103.512 41.8983C103.512 41.5192 103.453 41.2282 103.341 41.0252C103.224 40.8223 103.049 40.7227 102.816 40.7227C102.715 40.7227 102.622 40.7533 102.536 40.8108C102.451 40.8682 102.381 40.9525 102.319 41.0558C102.256 41.1592 102.21 41.2856 102.171 41.4273C102.136 41.5728 102.117 41.7298 102.117 41.8983H103.512Z" fill="#58595B"/>
<path d="M109.566 42.8133C109.566 42.9512 109.535 43.0737 109.477 43.1809C109.418 43.2843 109.337 43.3724 109.236 43.4451C109.135 43.5179 109.01 43.5715 108.867 43.6098C108.723 43.6481 108.567 43.6672 108.404 43.6672C108.14 43.6672 107.922 43.6442 107.755 43.5983C107.588 43.5523 107.46 43.4873 107.378 43.4068C107.293 43.3226 107.246 43.2307 107.231 43.1273C107.215 43.0239 107.211 42.8861 107.211 42.7214H107.343C107.378 42.9359 107.472 43.1043 107.623 43.2269C107.775 43.3494 107.992 43.4107 108.272 43.4107C108.525 43.4107 108.707 43.3685 108.828 43.2805C108.944 43.1924 109.003 43.0852 109.003 42.955C109.003 42.8248 108.952 42.7138 108.855 42.6257C108.754 42.5376 108.606 42.4496 108.408 42.3653L108.012 42.2007C107.759 42.1011 107.565 41.9824 107.425 41.8446C107.285 41.7067 107.215 41.5306 107.215 41.3161C107.215 41.1745 107.242 41.0558 107.297 40.9485C107.351 40.8451 107.429 40.7571 107.526 40.6843C107.623 40.6116 107.74 40.558 107.872 40.5197C108.004 40.4814 108.152 40.4661 108.311 40.4661C108.563 40.4661 108.769 40.489 108.937 40.535C109.1 40.5809 109.224 40.646 109.31 40.7264C109.395 40.8107 109.442 40.9026 109.457 41.006C109.473 41.1094 109.477 41.2472 109.477 41.4119H109.345C109.31 41.1974 109.216 41.0289 109.069 40.9064C108.921 40.7839 108.715 40.7226 108.447 40.7226C108.229 40.7226 108.066 40.7647 107.953 40.8528C107.841 40.9409 107.782 41.0481 107.782 41.1783C107.782 41.2932 107.829 41.3965 107.922 41.4884C108.016 41.5842 108.144 41.6646 108.315 41.7335L108.711 41.8982C108.995 42.013 109.209 42.1356 109.356 42.2696C109.496 42.4036 109.566 42.5874 109.566 42.8133Z" fill="#58595B"/>
<path d="M112.601 42.0627C112.601 41.8406 112.632 41.6339 112.698 41.4386C112.76 41.2433 112.857 41.0748 112.982 40.9331C113.106 40.7915 113.262 40.6766 113.44 40.5885C113.619 40.5043 113.825 40.4622 114.062 40.4622C114.291 40.4622 114.497 40.5043 114.68 40.5885C114.863 40.6728 115.014 40.7876 115.142 40.9331C115.267 41.0786 115.364 41.2471 115.426 41.4386C115.488 41.63 115.523 41.8406 115.523 42.0627C115.523 42.2848 115.492 42.4916 115.426 42.6869C115.36 42.8822 115.267 43.0507 115.142 43.1923C115.018 43.3378 114.863 43.4489 114.68 43.5369C114.497 43.6212 114.291 43.6633 114.062 43.6633C113.829 43.6633 113.619 43.6212 113.44 43.5369C113.262 43.4527 113.11 43.3378 112.982 43.1923C112.857 43.0468 112.76 42.8783 112.698 42.6869C112.632 42.4916 112.601 42.2848 112.601 42.0627ZM114.89 42.0627C114.89 41.8751 114.87 41.699 114.832 41.5343C114.793 41.3697 114.734 41.228 114.661 41.1093C114.587 40.9906 114.501 40.8949 114.4 40.8259C114.299 40.757 114.187 40.7225 114.062 40.7225C113.938 40.7225 113.825 40.757 113.724 40.8259C113.623 40.8949 113.534 40.9906 113.464 41.1093C113.39 41.228 113.335 41.3697 113.293 41.5343C113.25 41.699 113.234 41.8751 113.234 42.0627C113.234 42.2504 113.254 42.4265 113.293 42.5912C113.332 42.7558 113.39 42.8975 113.464 43.0162C113.538 43.1349 113.623 43.2306 113.724 43.2995C113.825 43.3685 113.938 43.4029 114.062 43.4029C114.187 43.4029 114.299 43.3685 114.4 43.2995C114.501 43.2306 114.591 43.1349 114.661 43.0162C114.734 42.8975 114.789 42.7558 114.832 42.5912C114.87 42.4227 114.89 42.2504 114.89 42.0627Z" fill="#58595B"/>
<path d="M121.352 43.5984H121.022L120.789 43.338H120.754C120.668 43.4223 120.556 43.495 120.408 43.5639C120.26 43.6329 120.089 43.6635 119.891 43.6635C119.751 43.6635 119.611 43.6482 119.475 43.6137C119.339 43.5793 119.219 43.518 119.114 43.4299C119.009 43.3418 118.924 43.2193 118.858 43.0661C118.791 42.913 118.76 42.7177 118.76 42.4841V41.3086C118.76 41.1133 118.733 40.9525 118.679 40.8338C118.624 40.7151 118.496 40.6538 118.298 40.6538H118.232V40.5236H118.764C118.881 40.5236 118.974 40.5351 119.052 40.5542C119.13 40.5734 119.192 40.6117 119.238 40.6729C119.285 40.7304 119.316 40.8146 119.335 40.9142C119.351 41.0176 119.363 41.1478 119.363 41.3086V42.4841C119.363 42.6488 119.382 42.7866 119.425 42.8977C119.468 43.0087 119.522 43.1006 119.592 43.1695C119.662 43.2385 119.74 43.2882 119.825 43.3189C119.911 43.3495 120 43.3648 120.093 43.3648C120.225 43.3648 120.35 43.3304 120.462 43.2614C120.575 43.1925 120.672 43.1121 120.758 43.0202V40.5198H121.356V43.5984H121.352Z" fill="#58595B"/>
<path d="M124.815 41.3086C124.815 41.1133 124.788 40.9525 124.733 40.8338C124.679 40.715 124.551 40.6538 124.352 40.6538H124.286V40.5236H124.819C124.986 40.5236 125.114 40.5466 125.199 40.5963C125.285 40.6461 125.347 40.7189 125.382 40.8184H125.417C125.483 40.7342 125.584 40.6538 125.716 40.5772C125.848 40.4968 126.016 40.4585 126.214 40.4585C126.28 40.4585 126.35 40.4662 126.427 40.4815C126.501 40.4968 126.563 40.5236 126.614 40.5581C126.665 40.5925 126.703 40.6346 126.738 40.6806C126.773 40.7304 126.808 40.784 126.843 40.8529L126.579 41.0482C126.528 40.9831 126.459 40.9333 126.361 40.9027C126.264 40.872 126.159 40.8529 126.047 40.8529C125.914 40.8529 125.79 40.8835 125.681 40.941C125.569 40.9984 125.483 41.0788 125.417 41.1784V43.5984H124.819V41.3086H124.815Z" fill="#58595B"/>
<path d="M131.075 40.4585C131.308 40.4585 131.506 40.4738 131.67 40.5121C131.833 40.5466 131.953 40.604 132.039 40.6882C132.078 40.7265 132.109 40.7725 132.136 40.8184C132.159 40.8644 132.175 40.9218 132.187 40.9869C132.194 41.052 132.202 41.1286 132.202 41.2205C132.206 41.3086 132.206 41.4158 132.206 41.5383H132.074C132.054 41.2588 131.965 41.052 131.806 40.9218C131.642 40.7878 131.444 40.7227 131.211 40.7227C131.044 40.7227 130.9 40.7572 130.78 40.8261C130.659 40.895 130.562 40.9907 130.481 41.1094C130.399 41.2282 130.341 41.3698 130.306 41.5345C130.271 41.6991 130.247 41.8753 130.247 42.0629C130.247 42.2505 130.267 42.4267 130.306 42.5913C130.345 42.756 130.403 42.8977 130.481 43.0164C130.562 43.1351 130.659 43.2308 130.78 43.2997C130.9 43.3686 131.044 43.4031 131.211 43.4031C131.444 43.4031 131.635 43.3572 131.782 43.2653C131.93 43.1734 132.058 43.0432 132.175 42.8785L132.307 42.9781C132.155 43.227 131.981 43.4031 131.778 43.5065C131.576 43.6099 131.343 43.6635 131.079 43.6635C130.83 43.6635 130.617 43.6214 130.43 43.5371C130.247 43.4529 130.096 43.338 129.975 43.1925C129.855 43.047 129.766 42.8785 129.707 42.6871C129.649 42.4918 129.618 42.285 129.618 42.0629C129.618 41.8408 129.649 41.634 129.707 41.4388C129.766 41.2435 129.855 41.075 129.975 40.9333C130.096 40.7878 130.247 40.6768 130.43 40.5887C130.613 40.5006 130.826 40.4585 131.075 40.4585Z" fill="#58595B"/>
<path d="M137.918 42.1586H135.905C135.905 42.3386 135.925 42.5033 135.964 42.6564C136.003 42.8096 136.061 42.9398 136.139 43.0508C136.216 43.1619 136.31 43.2461 136.422 43.3074C136.535 43.3686 136.659 43.3993 136.799 43.3993C137.017 43.3993 137.196 43.3533 137.339 43.2614C137.483 43.1695 137.611 43.0393 137.728 42.8747L137.86 42.9742C137.709 43.2231 137.538 43.3993 137.339 43.5027C137.141 43.6061 136.92 43.6597 136.667 43.6597C136.434 43.6597 136.228 43.6175 136.057 43.5333C135.886 43.4491 135.738 43.3342 135.622 43.1887C135.505 43.0432 135.416 42.8747 135.361 42.6832C135.307 42.4918 135.276 42.2812 135.276 42.0591C135.276 41.837 135.307 41.6302 135.365 41.4349C135.424 41.2396 135.513 41.0712 135.626 40.9295C135.742 40.784 135.878 40.6729 136.045 40.5849C136.209 40.5006 136.395 40.4585 136.605 40.4585C137.056 40.4585 137.39 40.581 137.607 40.8299C137.825 41.0788 137.934 41.4349 137.934 41.8944L137.918 42.1586ZM137.301 41.8983C137.301 41.5192 137.242 41.2282 137.13 41.0252C137.013 40.8223 136.838 40.7227 136.605 40.7227C136.504 40.7227 136.411 40.7533 136.325 40.8108C136.24 40.8682 136.17 40.9525 136.108 41.0558C136.045 41.1592 135.999 41.2856 135.96 41.4273C135.925 41.5728 135.905 41.7298 135.905 41.8983H137.301Z" fill="#58595B"/>
<path d="M150.373 43.8932C150.132 43.8932 149.934 43.8664 149.775 43.8128C149.615 43.7592 149.487 43.675 149.398 43.5601C149.304 43.4452 149.238 43.2997 149.203 43.1236C149.165 42.9436 149.145 42.733 149.145 42.4879V39.9684L147.486 43.5984H147.354L145.628 39.9033V43.5984H145.364V39.283H145.994L147.587 42.6832L149.145 39.283H149.744V42.4879C149.744 42.8862 149.794 43.1963 149.895 43.4223C149.996 43.6482 150.155 43.7631 150.373 43.7631V43.8932Z" fill="#58595B"/>
<path d="M155.277 43.5983L155.044 43.3035H155.009C154.943 43.3877 154.834 43.4681 154.683 43.5447C154.531 43.6251 154.329 43.6634 154.08 43.6634C153.987 43.6634 153.886 43.6481 153.773 43.6213C153.661 43.5945 153.56 43.5447 153.462 43.4758C153.365 43.4068 153.284 43.3111 153.218 43.1962C153.152 43.0775 153.117 42.9282 153.117 42.7521C153.117 42.5759 153.163 42.4266 153.256 42.3079C153.35 42.1892 153.474 42.0973 153.63 42.0284C153.785 41.9594 153.964 41.9096 154.166 41.8828C154.368 41.856 154.585 41.8407 154.811 41.8407H155.009C155.009 41.6148 154.994 41.4272 154.955 41.2817C154.92 41.1362 154.869 41.0213 154.807 40.9409C154.745 40.8605 154.671 40.803 154.585 40.7724C154.5 40.7418 154.407 40.7264 154.31 40.7264C154.123 40.7264 153.968 40.7647 153.843 40.8451C153.715 40.9256 153.63 41.0711 153.583 41.2817H153.284C153.284 41.1668 153.291 41.0634 153.303 40.9639C153.315 40.8643 153.365 40.7762 153.451 40.692C153.49 40.6537 153.548 40.6192 153.622 40.5886C153.696 40.558 153.777 40.535 153.863 40.5158C153.952 40.4967 154.045 40.4852 154.146 40.4776C154.247 40.4699 154.345 40.4661 154.449 40.4661C154.601 40.4661 154.745 40.4814 154.885 40.5158C155.025 40.5465 155.149 40.6154 155.258 40.7111C155.367 40.8069 155.452 40.9485 155.518 41.1285C155.584 41.3085 155.615 41.5459 155.615 41.8369V43.6021H155.277V43.5983ZM155.013 42.0934H154.815C154.484 42.0934 154.224 42.1547 154.034 42.2734C153.847 42.3921 153.75 42.5529 153.75 42.7482C153.75 42.8516 153.766 42.9435 153.804 43.0239C153.839 43.1043 153.886 43.1694 153.944 43.2192C154.003 43.2728 154.069 43.3111 154.142 43.3341C154.216 43.3571 154.298 43.3685 154.383 43.3685C154.547 43.3685 154.675 43.3264 154.772 43.246C154.869 43.1656 154.947 43.0737 155.013 42.9741V42.0934Z" fill="#58595B"/>
<path d="M159.089 41.3086C159.089 41.1133 159.062 40.9525 159.008 40.8338C158.953 40.715 158.825 40.6538 158.627 40.6538H158.495V40.5236H159.093C159.26 40.5236 159.389 40.5466 159.474 40.5925C159.56 40.6385 159.622 40.7036 159.657 40.784H159.688C159.773 40.6997 159.886 40.627 160.034 40.5581C160.181 40.4891 160.352 40.4585 160.55 40.4585C160.69 40.4585 160.83 40.4738 160.966 40.5083C161.102 40.5427 161.223 40.604 161.328 40.6921C161.433 40.7801 161.518 40.9027 161.584 41.0558C161.65 41.209 161.681 41.4005 161.681 41.6379V43.5984H161.083V41.6379C161.083 41.477 161.063 41.3392 161.021 41.2243C160.978 41.1095 160.924 41.0176 160.854 40.9486C160.784 40.8797 160.706 40.8299 160.62 40.7993C160.535 40.7687 160.446 40.7533 160.352 40.7533C160.22 40.7533 160.096 40.7878 159.983 40.8567C159.87 40.9256 159.773 41.0061 159.688 41.098V43.5984H159.089V41.3086Z" fill="#58595B"/>
<path d="M166.993 43.5983L166.76 43.3035H166.725C166.659 43.3877 166.55 43.4681 166.399 43.5447C166.247 43.6251 166.045 43.6634 165.797 43.6634C165.703 43.6634 165.602 43.6481 165.49 43.6213C165.377 43.5945 165.276 43.5447 165.179 43.4758C165.082 43.4068 165 43.3111 164.934 43.1962C164.868 43.0775 164.833 42.9282 164.833 42.7521C164.833 42.5759 164.879 42.4266 164.973 42.3079C165.066 42.1892 165.19 42.0973 165.346 42.0284C165.501 41.9594 165.68 41.9096 165.882 41.8828C166.084 41.856 166.302 41.8407 166.527 41.8407H166.725C166.725 41.6148 166.71 41.4272 166.671 41.2817C166.636 41.1362 166.585 41.0213 166.523 40.9409C166.461 40.8605 166.387 40.803 166.302 40.7724C166.216 40.7418 166.123 40.7264 166.026 40.7264C165.839 40.7264 165.684 40.7647 165.56 40.8451C165.431 40.9256 165.346 41.0711 165.299 41.2817H165C165 41.1668 165.008 41.0634 165.019 40.9639C165.031 40.8643 165.082 40.7762 165.167 40.692C165.206 40.6537 165.264 40.6192 165.338 40.5886C165.412 40.558 165.493 40.535 165.579 40.5158C165.668 40.4967 165.762 40.4852 165.863 40.4776C165.964 40.4699 166.061 40.4661 166.166 40.4661C166.317 40.4661 166.461 40.4814 166.601 40.5158C166.741 40.5465 166.865 40.6154 166.974 40.7111C167.083 40.8069 167.168 40.9485 167.234 41.1285C167.3 41.3085 167.332 41.5459 167.332 41.8369V43.6021H166.993V43.5983ZM166.729 42.0934H166.531C166.201 42.0934 165.94 42.1547 165.75 42.2734C165.563 42.3921 165.466 42.5529 165.466 42.7482C165.466 42.8516 165.482 42.9435 165.521 43.0239C165.556 43.1043 165.602 43.1694 165.661 43.2192C165.719 43.2728 165.785 43.3111 165.859 43.3341C165.933 43.3571 166.014 43.3685 166.1 43.3685C166.263 43.3685 166.391 43.3264 166.488 43.246C166.585 43.1656 166.663 43.0737 166.729 42.9741V42.0934Z" fill="#58595B"/>
<path d="M170.6 41.4387C170.6 41.251 170.631 41.0941 170.701 40.9677C170.771 40.8413 170.856 40.7418 170.969 40.6652C171.082 40.5924 171.214 40.5388 171.369 40.5044C171.525 40.4737 171.688 40.4546 171.859 40.4546H173.087V40.6192L172.655 40.6843V40.7188C172.788 40.7839 172.9 40.8796 172.986 41.0022C173.075 41.1247 173.118 41.2702 173.118 41.4387C173.118 41.6263 173.083 41.7833 173.017 41.9097C172.951 42.036 172.861 42.1356 172.749 42.2122C172.636 42.2849 172.504 42.3385 172.348 42.373C172.193 42.4074 172.03 42.4228 171.859 42.4228C171.392 42.4228 171.163 42.4993 171.163 42.6525C171.163 42.8057 171.396 42.8823 171.859 42.8823C172.057 42.8823 172.247 42.9014 172.422 42.9397C172.601 42.978 172.753 43.0393 172.889 43.1197C173.021 43.2001 173.126 43.3035 173.203 43.4337C173.281 43.5638 173.32 43.717 173.32 43.8932C173.32 44.0808 173.281 44.2378 173.207 44.368C173.133 44.4982 173.028 44.6015 172.9 44.682C172.768 44.7624 172.617 44.8198 172.438 44.8543C172.259 44.8887 172.069 44.9079 171.859 44.9079C171.649 44.9079 171.459 44.8926 171.28 44.8543C171.101 44.8198 170.949 44.7624 170.817 44.682C170.685 44.6015 170.584 44.4982 170.51 44.368C170.436 44.2378 170.398 44.0808 170.398 43.8932C170.398 43.6787 170.468 43.5026 170.611 43.3571C170.755 43.2116 170.926 43.1082 171.124 43.0431C171.058 43.0086 170.996 42.9588 170.942 42.8976C170.887 42.8325 170.86 42.7521 170.86 42.6525C170.86 42.553 170.887 42.4764 170.942 42.4228C170.996 42.3692 171.047 42.327 171.093 42.2926C170.961 42.2275 170.845 42.1241 170.743 41.9786C170.65 41.8331 170.6 41.6531 170.6 41.4387ZM171.56 43.1082C171.392 43.1733 171.256 43.269 171.152 43.3877C171.047 43.5102 170.996 43.6787 170.996 43.8932C170.996 44.1535 171.078 44.345 171.237 44.4675C171.4 44.5862 171.606 44.6475 171.859 44.6475C172.111 44.6475 172.317 44.5862 172.481 44.4675C172.644 44.3488 172.721 44.1574 172.721 43.8932C172.721 43.4566 172.457 43.2077 171.925 43.1426L171.56 43.1082ZM172.523 41.4387C172.523 41.1783 172.457 40.9868 172.329 40.8643C172.201 40.7418 172.045 40.6843 171.859 40.6843C171.766 40.6843 171.68 40.6958 171.598 40.7226C171.517 40.7494 171.451 40.7916 171.389 40.849C171.33 40.9064 171.28 40.9868 171.245 41.0826C171.21 41.1783 171.19 41.297 171.19 41.4348C171.19 41.5727 171.206 41.6914 171.245 41.7871C171.28 41.8829 171.326 41.9594 171.389 42.0207C171.447 42.0781 171.517 42.1203 171.598 42.1471C171.68 42.1739 171.766 42.1854 171.859 42.1854C171.952 42.1854 172.038 42.1739 172.119 42.1471C172.201 42.1203 172.267 42.0781 172.329 42.0207C172.387 41.9633 172.438 41.8829 172.473 41.7871C172.508 41.6991 172.523 41.5804 172.523 41.4387Z" fill="#58595B"/>
<path d="M178.889 42.1586H176.876C176.876 42.3386 176.895 42.5033 176.934 42.6564C176.973 42.8096 177.031 42.9398 177.109 43.0508C177.187 43.1619 177.28 43.2461 177.392 43.3074C177.505 43.3686 177.63 43.3993 177.769 43.3993C177.987 43.3993 178.166 43.3533 178.31 43.2614C178.453 43.1695 178.582 43.0393 178.698 42.8747L178.83 42.9742C178.679 43.2231 178.508 43.3993 178.31 43.5027C178.111 43.6061 177.89 43.6597 177.637 43.6597C177.404 43.6597 177.198 43.6175 177.027 43.5333C176.856 43.4491 176.709 43.3342 176.592 43.1887C176.475 43.0432 176.386 42.8747 176.332 42.6832C176.273 42.4879 176.246 42.2812 176.246 42.0591C176.246 41.837 176.277 41.6302 176.335 41.4349C176.394 41.2396 176.483 41.0712 176.596 40.9295C176.709 40.7878 176.852 40.6729 177.016 40.5849C177.179 40.5006 177.365 40.4585 177.575 40.4585C178.026 40.4585 178.36 40.581 178.578 40.8299C178.795 41.0788 178.904 41.4349 178.904 41.8944L178.889 42.1586ZM178.271 41.8983C178.271 41.5192 178.212 41.2282 178.1 41.0252C177.983 40.8223 177.808 40.7227 177.575 40.7227C177.474 40.7227 177.381 40.7533 177.295 40.8108C177.21 40.8682 177.14 40.9525 177.078 41.0558C177.016 41.1592 176.965 41.2856 176.93 41.4273C176.895 41.5728 176.876 41.7298 176.876 41.8983H178.271Z" fill="#58595B"/>
<path d="M182.817 40.784C182.903 40.6997 183.016 40.627 183.163 40.5581C183.311 40.4891 183.482 40.4585 183.68 40.4585C183.847 40.4585 184.003 40.4891 184.142 40.5504C184.282 40.6117 184.395 40.7342 184.477 40.918C184.593 40.7687 184.741 40.6576 184.92 40.5772C185.098 40.4968 185.285 40.4585 185.471 40.4585C185.596 40.4585 185.712 40.4738 185.825 40.5083C185.938 40.5389 186.035 40.604 186.12 40.6921C186.206 40.7801 186.272 40.9027 186.323 41.0558C186.373 41.209 186.4 41.4005 186.4 41.6379V43.5984H185.802V41.6379C185.802 41.3124 185.755 41.0826 185.662 40.9525C185.569 40.8223 185.437 40.7572 185.269 40.7572C185.203 40.7572 185.137 40.7687 185.067 40.7955C184.997 40.8223 184.935 40.8567 184.873 40.895C184.811 40.9371 184.753 40.9831 184.702 41.0329C184.652 41.0826 184.605 41.1324 184.578 41.1784C184.593 41.2243 184.605 41.2971 184.609 41.3928C184.613 41.4885 184.613 41.5689 184.613 41.634V43.5946H184.014V41.634C184.014 41.3086 183.968 41.0788 183.874 40.9486C183.781 40.8184 183.649 40.7533 183.482 40.7533C183.35 40.7533 183.225 40.7878 183.113 40.8567C183 40.9256 182.903 41.0061 182.817 41.098V43.5984H182.219V41.3086C182.219 41.1133 182.192 40.9525 182.137 40.8338C182.083 40.715 181.955 40.6538 181.756 40.6538H181.624V40.5236H182.223C182.39 40.5236 182.518 40.5466 182.604 40.5925C182.689 40.6385 182.751 40.7036 182.786 40.784H182.817Z" fill="#58595B"/>
<path d="M192.253 42.1586H190.24C190.24 42.3386 190.259 42.5033 190.298 42.6564C190.337 42.8096 190.395 42.9398 190.473 43.0508C190.55 43.1619 190.644 43.2461 190.756 43.3074C190.869 43.3686 190.993 43.3993 191.133 43.3993C191.351 43.3993 191.53 43.3533 191.674 43.2614C191.817 43.1695 191.946 43.0393 192.062 42.8747L192.194 42.9742C192.043 43.2231 191.872 43.3993 191.674 43.5027C191.475 43.6061 191.254 43.6597 191.001 43.6597C190.768 43.6597 190.562 43.6175 190.391 43.5333C190.22 43.4491 190.073 43.3342 189.956 43.1887C189.839 43.0432 189.75 42.8747 189.696 42.6832C189.637 42.4879 189.61 42.2812 189.61 42.0591C189.61 41.837 189.641 41.6302 189.699 41.4349C189.758 41.2396 189.847 41.0712 189.96 40.9295C190.072 40.7878 190.216 40.6729 190.38 40.5849C190.543 40.5006 190.729 40.4585 190.939 40.4585C191.39 40.4585 191.724 40.581 191.942 40.8299C192.159 41.0788 192.268 41.4349 192.268 41.8944L192.253 42.1586ZM191.635 41.8983C191.635 41.5192 191.576 41.2282 191.464 41.0252C191.347 40.8223 191.172 40.7227 190.939 40.7227C190.838 40.7227 190.745 40.7533 190.659 40.8108C190.574 40.8682 190.504 40.9525 190.442 41.0558C190.38 41.1592 190.329 41.2856 190.294 41.4273C190.259 41.5728 190.24 41.7298 190.24 41.8983H191.635Z" fill="#58595B"/>
<path d="M195.583 41.3086C195.583 41.1133 195.556 40.9525 195.501 40.8338C195.447 40.715 195.319 40.6538 195.12 40.6538H194.988V40.5236H195.587C195.754 40.5236 195.882 40.5466 195.968 40.5925C196.053 40.6385 196.115 40.7036 196.15 40.784H196.181C196.267 40.6997 196.38 40.627 196.527 40.5581C196.675 40.4891 196.846 40.4585 197.044 40.4585C197.184 40.4585 197.324 40.4738 197.46 40.5083C197.596 40.5427 197.716 40.604 197.821 40.6921C197.926 40.7801 198.012 40.9027 198.078 41.0558C198.144 41.209 198.175 41.4005 198.175 41.6379V43.5984H197.576V41.6379C197.576 41.477 197.557 41.3392 197.514 41.2243C197.471 41.1095 197.417 41.0176 197.347 40.9486C197.277 40.8797 197.199 40.8299 197.114 40.7993C197.028 40.7687 196.939 40.7533 196.846 40.7533C196.714 40.7533 196.589 40.7878 196.477 40.8567C196.364 40.9256 196.267 41.0061 196.181 41.098V43.5984H195.583V41.3086Z" fill="#58595B"/>
<path d="M201.676 40.7841H201.21V40.5237H201.676V39.934L202.006 39.5435H202.271V40.5237H203.067V40.7841H202.271V42.8135C202.271 43.2041 202.426 43.4032 202.737 43.4032C202.854 43.4032 202.947 43.3917 203.021 43.3649C203.095 43.3381 203.168 43.3075 203.234 43.273L203.3 43.4032C203.266 43.43 203.223 43.4568 203.176 43.4875C203.13 43.5181 203.075 43.5449 203.005 43.5717C202.935 43.5985 202.861 43.6177 202.772 43.6368C202.683 43.656 202.582 43.6636 202.465 43.6636C202.232 43.6636 202.038 43.5947 201.89 43.4607C201.742 43.3266 201.668 43.1084 201.668 42.8135V40.7841H201.676Z" fill="#58595B"/>
<path d="M20.3899 31.0926C20.3899 31.0926 17.2617 32.2183 13.3718 31.0275C13.3718 31.0275 17.3433 30.3382 22.7098 25.9232C29.5803 20.2676 33.8238 19.0155 37.3795 20.8267C35.763 20.7845 32.3355 23.4841 30.1088 31.3683C29.0557 35.1017 29.2383 39.2104 31.7332 42.5302C30.8083 40.0872 30.5518 36.7482 32.7591 32.7276C32.7591 32.7276 33.6179 44.1959 50.7435 44.9962H54.715L27.3575 0L0 45H2.04404C7.08808 44.6056 15.272 41.3623 20.3899 31.0926Z" fill="url(#paint0_linear)"/>
<g style="mix-blend-mode:multiply">
<path d="M30.1088 31.3683C29.0557 35.1018 29.2383 39.2104 31.7332 42.5303C30.8083 40.0873 30.5518 36.7483 32.7591 32.7277V32.0691C32.6775 24.8588 37.3795 20.8229 37.3795 20.8229C35.763 20.7846 32.3355 23.4842 30.1088 31.3683Z" fill="#A7A9AC"/>
</g>
<g style="mix-blend-mode:multiply">
<path d="M8.90285 43.0432C12.9288 41.0712 17.2422 37.4143 20.3899 31.0924C20.3899 31.0924 17.2617 32.2182 13.3718 31.0273C13.4184 34.1787 12.5984 39.283 8.90285 43.0432Z" fill="#A7A9AC"/>
</g>
<defs>
<linearGradient id="paint0_linear" x1="27.3586" y1="47.5755" x2="27.3586" y2="7.57901" gradientUnits="userSpaceOnUse">
<stop stop-color="#FF5C00"/>
<stop offset="1" stop-color="#FF7B39"/>
</linearGradient>
</defs>
</svg>
