<svg width="34" height="34" viewBox="0 0 34 34" fill="none" xmlns="http://www.w3.org/2000/svg">
<g clip-path="url(#clip0)">
<path d="M32.2408 9.37964C31.4777 9.37964 30.8329 9.87138 30.5901 10.552H26.8566C26.6138 9.87138 25.969 9.37964 25.2059 9.37964C24.2364 9.37964 23.4473 10.1688 23.4473 11.1382C23.4473 11.5902 23.6236 11.9986 23.9044 12.3106L20.1986 19.9581C20.1113 19.9446 20.0229 19.9312 19.9307 19.9312C19.708 19.9312 19.4962 19.977 19.2993 20.0531L17.9317 18.4574C18.0808 18.1995 18.1721 17.9047 18.1721 17.5864C18.1721 16.6169 17.383 15.8278 16.4135 15.8278C15.4441 15.8278 14.6549 16.6169 14.6549 17.5864C14.6549 17.8572 14.721 18.1105 14.8312 18.3398L12.5949 20.5761L11.8407 19.8216L10.5845 20.6593C10.259 20.4905 9.91955 20.3496 9.56978 20.2383L9.27296 18.7588H5.96759L5.67077 20.2383C5.32042 20.3491 4.98096 20.4905 4.65609 20.6593L3.39983 19.8216L1.06277 22.1586L1.90056 23.4149C1.73168 23.7403 1.59086 24.0798 1.47952 24.4296L0 24.7269V28.0323L1.47952 28.3291C1.59029 28.6795 1.73168 29.019 1.90056 29.3438L1.06277 30.6001L3.39983 32.9371L4.65609 32.0993C4.98153 32.2682 5.321 32.409 5.67077 32.5204L5.96816 33.9999H9.27353L9.57035 32.5204C9.92069 32.4096 10.2602 32.2682 10.585 32.0993L11.8413 32.9371L14.1783 30.6001L13.3406 29.3438C13.5094 29.0184 13.6503 28.6789 13.7616 28.3291L15.2411 28.0317V24.7264L13.7616 24.4296C13.6508 24.0792 13.5094 23.7397 13.3406 23.4149L14.1783 22.1586L13.4238 21.405L15.6602 19.1687C15.8894 19.2789 16.1427 19.345 16.4135 19.345C16.6362 19.345 16.848 19.2992 17.0449 19.2231L18.4125 20.8188C18.2634 21.0767 18.1721 21.3715 18.1721 21.6898C18.1721 22.6592 18.9612 23.4484 19.9307 23.4484C20.9001 23.4484 21.6893 22.6592 21.6893 21.6898C21.6893 21.2378 21.513 20.8294 21.2322 20.5174L24.938 12.8699C25.0259 12.8834 25.1143 12.8968 25.2065 12.8968C25.9695 12.8968 26.6144 12.4051 26.8571 11.7244H30.5907C30.8334 12.4051 31.4783 12.8968 32.2414 12.8968C33.2109 12.8968 34 12.1077 34 11.1382C34 10.1688 33.2103 9.37964 32.2408 9.37964ZM7.62056 30.4827C5.35849 30.4827 3.51718 28.6414 3.51718 26.3793C3.51718 25.5247 3.78051 24.7035 4.27855 24.0034L5.2337 24.6834C4.87763 25.1835 4.68957 25.7697 4.68957 26.3793C4.68957 27.9954 6.00451 29.3103 7.62056 29.3103C8.23023 29.3103 8.81642 29.1223 9.31646 28.7662L9.99654 29.7214C9.29643 30.2194 8.47524 30.4827 7.62056 30.4827ZM5.86197 26.3793C5.86197 25.4099 6.6511 24.6208 7.62056 24.6208C8.59002 24.6208 9.37915 25.4099 9.37915 26.3793C9.37915 27.3488 8.59002 28.1379 7.62056 28.1379C6.6511 28.1379 5.86197 27.3488 5.86197 26.3793ZM10.9626 28.7553L10.0074 28.0753C10.3635 27.5752 10.5515 26.989 10.5515 26.3793C10.5515 24.7633 9.23661 23.4484 7.62056 23.4484C7.01089 23.4484 6.42469 23.6364 5.92465 23.9925L5.24457 23.0373C5.94469 22.5393 6.76588 22.276 7.62056 22.276C9.88263 22.276 11.7239 24.1173 11.7239 26.3793C11.7239 27.234 11.4606 28.0552 10.9626 28.7553ZM15.8273 17.5864C15.8273 17.263 16.0901 17.0002 16.4135 17.0002C16.7369 17.0002 16.9997 17.263 16.9997 17.5864C16.9997 17.9101 16.7369 18.1726 16.4135 18.1726C16.0901 18.1726 15.8273 17.9101 15.8273 17.5864ZM19.9307 22.276C19.6073 22.276 19.3445 22.0135 19.3445 21.6898C19.3445 21.3663 19.6073 21.1036 19.9307 21.1036C20.2541 21.1036 20.5169 21.3663 20.5169 21.6898C20.5169 22.0135 20.2541 22.276 19.9307 22.276ZM25.2065 11.7244C24.883 11.7244 24.6203 11.462 24.6203 11.1382C24.6203 10.8148 24.883 10.552 25.2065 10.552C25.5299 10.552 25.7927 10.8148 25.7927 11.1382C25.7927 11.462 25.5299 11.7244 25.2065 11.7244ZM32.2408 11.7244C31.9174 11.7244 31.6546 11.462 31.6546 11.1382C31.6546 10.8148 31.9174 10.552 32.2408 10.552C32.5643 10.552 32.827 10.8148 32.827 11.1382C32.827 11.462 32.5643 11.7244 32.2408 11.7244Z" fill="white"/>
<path d="M32.827 14.0692H30.4822V32.8275H28.1375V17.0002H25.7927V32.8275H23.4479V25.7931H21.1031V32.8275H18.7583V23.4484H16.4135V32.8275H15.2411V33.9999H33.9994V32.8275H32.827V14.0692Z" fill="white"/>
<path d="M12.8963 32.8276H14.0687V34.0001H12.8963V32.8276Z" fill="white"/>
<path d="M8.20678 26.3794C8.20678 26.7032 7.9443 26.9656 7.62057 26.9656C7.29684 26.9656 7.03436 26.7032 7.03436 26.3794C7.03436 26.0557 7.29684 25.7932 7.62057 25.7932C7.9443 25.7932 8.20678 26.0557 8.20678 26.3794Z" fill="white"/>
<path d="M24.6203 0.000610352V1.173H25.2065C25.8531 1.173 26.3789 1.69881 26.3789 2.3454V5.86258H29.3098V7.62117L31.0684 5.86258H33.9994V0.000610352H24.6203ZM29.896 3.51779H28.7236V2.3454H29.896V3.51779ZM32.2408 3.51779H31.0684V2.3454H32.2408V3.51779Z" fill="white"/>
<path d="M18.7583 8.2073V9.96589L20.5169 8.2073H25.2065V2.34534H15.8262L15.8273 8.2073H18.7583ZM16.9997 3.51773H24.0341V4.69012H16.9997V3.51773ZM16.9997 5.86251H24.0341V7.03491H16.9997V5.86251Z" fill="white"/>
<path d="M5.90405 1.66904L7.14342 2.49538C7.5719 2.78047 8.0708 2.93159 8.58486 2.93159C9.5672 2.93159 10.4519 2.38948 10.8973 1.51533L10.7508 1.4661C10.0567 1.23512 9.39661 0.912822 8.78894 0.506949C8.29177 0.175782 7.7133 0.000610352 7.11651 0.000610352C5.70311 0.000610352 4.51383 0.978368 4.18896 2.2933C4.63577 2.22346 5.07227 2.08522 5.47613 1.88285L5.90405 1.66904Z" fill="white"/>
<path d="M8.21735 12.9596L8.73141 17.5865H10.5515V12.8969H11.7239V17.5865H14.0687V12.8834C14.0687 12.1003 13.5652 11.4237 12.8153 11.1987L9.16877 10.1047L8.21735 12.9596Z" fill="white"/>
<path d="M6.97282 13.483L6.51685 17.5865H7.55187L7.0959 13.483H6.97282Z" fill="white"/>
<path d="M2.34479 12.8969H3.51718V17.5865H5.33731L5.85138 12.9596L4.89995 10.1047L1.2534 11.1987C0.503477 11.4231 0 12.1003 0 12.8834V17.5865H2.34479V12.8969Z" fill="white"/>
<path d="M8.2068 9.21803V8.6178C7.82983 8.73143 7.43054 8.79355 7.0175 8.79355H6.92934C6.56354 8.79355 6.20603 8.74145 5.86255 8.64642V9.21803C6.00738 9.44244 6.41126 9.96596 7.03439 9.96596C7.65752 9.96596 8.0614 9.44244 8.2068 9.21803Z" fill="white"/>
<path d="M6.92875 7.62107H7.0169C8.64297 7.62107 9.96535 6.30614 9.96535 4.69009V3.84543C8.86852 4.27334 7.51752 4.15312 6.49339 3.47075L5.81617 3.0188C5.27406 3.26496 4.69187 3.42267 4.10052 3.4865L4.09995 4.79084C4.09937 5.54649 4.39362 6.25748 4.92743 6.79215C5.46211 7.32683 6.17253 7.62107 6.92875 7.62107Z" fill="white"/>
<path d="M7.03437 11.1384C6.8257 11.1384 6.63335 11.1098 6.45474 11.0623L6.87093 12.3108H7.19838L7.61485 11.0623C7.43538 11.1098 7.24303 11.1384 7.03437 11.1384Z" fill="white"/>
</g>
<defs>
<clipPath id="clip0">
<rect width="34" height="34" fill="white"/>
</clipPath>
</defs>
</svg>
